<svg xmlns="http://www.w3.org/2000/svg" width="1183.6" height="696" font-family="Malgun Gothic,Pretendard,sans-serif">
<rect width="1183.6" height="696" fill="#fff"/>
<text x="591.8" y="40" font-size="20" font-weight="800" fill="#0f1e3d" text-anchor="middle">1인실 vs 2인실 vs 4인실 — 책상 1200mm 고정모듈 기준 가구배치 비교</text>
<text x="591.8" y="64" font-size="12" fill="#64748b" text-anchor="middle">같은 축척(1m=120px). 책상이 고정크기라 인원이 늘어도 통행·의자공간이 정비례로 줄지 않음</text>
<rect x="60" y="140" width="226.79999999999998" height="192" fill="#f8fafc" stroke="#1e293b" stroke-width="3"/>
<text x="173.39999999999998" y="126" font-size="16" font-weight="800" fill="#0f1e3d" text-anchor="middle">1인실 · 인당 0.90평</text><text x="173.39999999999998" y="358" font-size="12" fill="#64748b" text-anchor="middle">1890×1600mm</text>
<g><rect x="101.4" y="158" width="144" height="72" fill="#d9c9a3" stroke="#8a6d3b" stroke-width="2" rx="3"/><text x="173.39999999999998" y="198" font-size="10" fill="#5c4a2a" text-anchor="middle">책상 1200</text></g>
<rect x="78" y="230" width="190.8" height="102" fill="#eef7f0" stroke="#9cc9a8" stroke-dasharray="4,3"/>
<g transform="rotate(0 173.39999999999998 266)"><circle cx="173.39999999999998" cy="266" r="26.4" fill="#8fb8de" stroke="#2c5c8a" stroke-width="2"/></g>
<text x="173.39999999999998" y="248" font-size="9" fill="#16834a" text-anchor="middle">여유공간(의자+통행) 85cm</text>
<text x="173.39999999999998" y="382" font-size="12" fill="#16834a" font-weight="700" text-anchor="middle">면적=3.02㎡(0.90평) → 패스트파이브 실측밀도 0.89평/인 수준</text>
<rect x="366.79999999999995" y="140" width="264" height="396" fill="#f8fafc" stroke="#1e293b" stroke-width="3"/>
<text x="498.79999999999995" y="126" font-size="16" font-weight="800" fill="#0f1e3d" text-anchor="middle">2인실 · 인당 1.10평</text><text x="498.79999999999995" y="562" font-size="12" fill="#64748b" text-anchor="middle">2200×3300mm</text>
<g><rect x="426.79999999999995" y="158" width="144" height="72" fill="#d9c9a3" stroke="#8a6d3b" stroke-width="2" rx="3"/><text x="498.79999999999995" y="198" font-size="10" fill="#5c4a2a" text-anchor="middle">책상 1200</text></g>
<g transform="rotate(180 498.79999999999995 266)"><circle cx="498.79999999999995" cy="266" r="26.4" fill="#8fb8de" stroke="#2c5c8a" stroke-width="2"/></g>
<g transform="rotate(0 498.79999999999995 410)"><circle cx="498.79999999999995" cy="410" r="26.4" fill="#8fb8de" stroke="#2c5c8a" stroke-width="2"/></g>
<g><rect x="426.79999999999995" y="446" width="144" height="72" fill="#d9c9a3" stroke="#8a6d3b" stroke-width="2" rx="3"/><text x="498.79999999999995" y="485.99999999999994" font-size="10" fill="#5c4a2a" text-anchor="middle">책상 1200</text></g>
<rect x="384.79999999999995" y="308" width="228" height="60" fill="#fff7ed" stroke="#f0d39d" stroke-dasharray="4,3"/>
<text x="498.79999999999995" y="338" font-size="9" fill="#a15c07" text-anchor="middle">중앙 통행공간(사람수 늘어도 안 줄어듦)</text>
<text x="498.79999999999995" y="586" font-size="12" fill="#b42318" font-weight="700" text-anchor="middle">면적=7.26㎡(2.20평) → 책상2개+통로, 1인실의 2배보다 큼</text>
<rect x="710.8" y="140" width="412.8" height="348" fill="#f8fafc" stroke="#1e293b" stroke-width="3"/>
<text x="917.1999999999999" y="126" font-size="16" font-weight="800" fill="#0f1e3d" text-anchor="middle">4인실 · 인당 0.75평</text><text x="917.1999999999999" y="514" font-size="12" fill="#64748b" text-anchor="middle">3440×2900mm</text>
<g><rect x="734.8" y="158" width="144" height="72" fill="#d9c9a3" stroke="#8a6d3b" stroke-width="2" rx="3"/><text x="806.8" y="198" font-size="10" fill="#5c4a2a" text-anchor="middle">책상 1200</text></g>
<g><rect x="902.8" y="158" width="144" height="72" fill="#d9c9a3" stroke="#8a6d3b" stroke-width="2" rx="3"/><text x="974.8" y="198" font-size="10" fill="#5c4a2a" text-anchor="middle">책상 1200</text></g>
<g transform="rotate(180 806.8 254)"><circle cx="806.8" cy="254" r="26.4" fill="#8fb8de" stroke="#2c5c8a" stroke-width="2"/></g>
<g transform="rotate(180 974.8 254)"><circle cx="974.8" cy="254" r="26.4" fill="#8fb8de" stroke="#2c5c8a" stroke-width="2"/></g>
<g transform="rotate(0 806.8 374)"><circle cx="806.8" cy="374" r="26.4" fill="#8fb8de" stroke="#2c5c8a" stroke-width="2"/></g>
<g transform="rotate(0 974.8 374)"><circle cx="974.8" cy="374" r="26.4" fill="#8fb8de" stroke="#2c5c8a" stroke-width="2"/></g>
<g><rect x="734.8" y="398" width="144" height="72" fill="#d9c9a3" stroke="#8a6d3b" stroke-width="2" rx="3"/><text x="806.8" y="437.99999999999994" font-size="10" fill="#5c4a2a" text-anchor="middle">책상 1200</text></g>
<g><rect x="902.8" y="398" width="144" height="72" fill="#d9c9a3" stroke="#8a6d3b" stroke-width="2" rx="3"/><text x="974.8" y="437.99999999999994" font-size="10" fill="#5c4a2a" text-anchor="middle">책상 1200</text></g>
<rect x="728.8" y="296" width="376.8" height="36" fill="#fff7ed" stroke="#f0d39d" stroke-dasharray="4,3"/>
<text x="917.1999999999999" y="316" font-size="9" fill="#a15c07" text-anchor="middle">통행공간을 4명이 공유(1인당 분담 面積 감소)</text>
<text x="917.1999999999999" y="538" font-size="12" fill="#16834a" font-weight="700" text-anchor="middle">면적=9.98㎡(3.02평) → 통로를 4명이 나눠써서 인당은 오히려 줄어듦</text>
</svg>