<svg xmlns="http://www.w3.org/2000/svg" width="1240" height="1160" font-family="Malgun Gothic,Pretendard,sans-serif">
<rect width="1240" height="1160" fill="#fff"/>
<text x="160" y="40" font-size="22" font-weight="800" fill="#0f1e3d">150평 — 전용 22.0×22.5m=495㎡</text>
<text x="160" y="60" font-size="11" fill="#64748b">줄1: 4인 3,540×2,400(풀폭 6열) · 줄2~3: 4인 3,380×2,900(6열) · 줄4: 2인 2,200×3,600 · 1인 1,890×1,750 · 우편·창고 / 줄5: 1인 1,890×1,750×20실 · 복도1,100</text>
<rect x="160" y="158" width="836" height="855" fill="#3a4a63"/>
<rect x="161.9" y="159.9" width="832.1999999999999" height="851.1999999999999" fill="#f8fafc" stroke="#0f1e3d" stroke-width="3"/>
<rect x="954.1999999999999" y="257.56" width="41.800000000000004" height="625.1" fill="#e2e8f0"/>
<text x="975.1" y="538" font-size="8" fill="#475569" text-anchor="middle" transform="rotate(-90 975.1 538)">복도 1,100 (입구연결)</text>
<rect x="986" y="918" width="20" height="76" fill="#1d4ed8" stroke="#fff" stroke-width="2"/>
<polygon points="1018,956 998,948.4 998,963.6" fill="#1d4ed8"/>
<rect x="1020" y="942" width="46" height="28" rx="4" fill="#1d4ed8"/>
<text x="1043" y="961" font-size="14" font-weight="900" fill="#fff" text-anchor="middle">입구</text>
<rect x="164.56" y="162.56" width="134.63400000000001" height="91.2" fill="#e8f0ff" stroke="#1e293b" stroke-width="1.3"/>
<text x="231.877" y="209.16" font-size="12" font-weight="700" fill="#0f1e3d" text-anchor="middle">4</text>
<text x="231.877" y="220.16" font-size="8.5" fill="#64748b" text-anchor="middle">3540×2400</text>
<line x1="218.577" y1="253.76" x2="245.17700000000002" y2="253.76" stroke="#fff" stroke-width="9"/>
<line x1="218.577" y1="253.76" x2="245.17700000000002" y2="253.76" stroke="#dc2626" stroke-width="6"/>
<rect x="302.994" y="162.56" width="134.63400000000001" height="91.2" fill="#e8f0ff" stroke="#1e293b" stroke-width="1.3"/>
<text x="370.311" y="209.16" font-size="12" font-weight="700" fill="#0f1e3d" text-anchor="middle">4</text>
<text x="370.311" y="220.16" font-size="8.5" fill="#64748b" text-anchor="middle">3540×2400</text>
<line x1="357.01099999999997" y1="253.76" x2="383.611" y2="253.76" stroke="#fff" stroke-width="9"/>
<line x1="357.01099999999997" y1="253.76" x2="383.611" y2="253.76" stroke="#dc2626" stroke-width="6"/>
<rect x="441.428" y="162.56" width="134.63400000000001" height="91.2" fill="#e8f0ff" stroke="#1e293b" stroke-width="1.3"/>
<text x="508.745" y="209.16" font-size="12" font-weight="700" fill="#0f1e3d" text-anchor="middle">4</text>
<text x="508.745" y="220.16" font-size="8.5" fill="#64748b" text-anchor="middle">3540×2400</text>
<line x1="495.44500000000005" y1="253.76" x2="522.0450000000001" y2="253.76" stroke="#fff" stroke-width="9"/>
<line x1="495.44500000000005" y1="253.76" x2="522.0450000000001" y2="253.76" stroke="#dc2626" stroke-width="6"/>
<rect x="579.862" y="162.56" width="134.63400000000001" height="91.2" fill="#e8f0ff" stroke="#1e293b" stroke-width="1.3"/>
<text x="647.179" y="209.16" font-size="12" font-weight="700" fill="#0f1e3d" text-anchor="middle">4</text>
<text x="647.179" y="220.16" font-size="8.5" fill="#64748b" text-anchor="middle">3540×2400</text>
<line x1="633.8789999999999" y1="253.76" x2="660.4789999999999" y2="253.76" stroke="#fff" stroke-width="9"/>
<line x1="633.8789999999999" y1="253.76" x2="660.4789999999999" y2="253.76" stroke="#dc2626" stroke-width="6"/>
<rect x="718.296" y="162.56" width="134.63400000000001" height="91.2" fill="#e8f0ff" stroke="#1e293b" stroke-width="1.3"/>
<text x="785.6129999999999" y="209.16" font-size="12" font-weight="700" fill="#0f1e3d" text-anchor="middle">4</text>
<text x="785.6129999999999" y="220.16" font-size="8.5" fill="#64748b" text-anchor="middle">3540×2400</text>
<line x1="772.313" y1="253.76" x2="798.913" y2="253.76" stroke="#fff" stroke-width="9"/>
<line x1="772.313" y1="253.76" x2="798.913" y2="253.76" stroke="#dc2626" stroke-width="6"/>
<rect x="856.73" y="162.56" width="134.63400000000001" height="91.2" fill="#f1f1f1" stroke="#94a3b8" stroke-width="1.3" stroke-dasharray="6,4"/>
<text x="923.99" y="208.16" font-size="10" fill="#64748b" text-anchor="middle">비정형 손실 구간</text>
<text x="923.99" y="221.16" font-size="8.5" fill="#94a3b8" text-anchor="middle">(기둥·경사벽 등 비직사각형 실측 반영, 4인실 1개분 의도적 차감)</text>
<rect x="160" y="257.56" width="794.1999999999999" height="41.800000000000004" fill="#e2e8f0"/>
<text x="557.0999999999999" y="281.46" font-size="8" fill="#475569" text-anchor="middle">복도 1,100  (양면 — 줄1·줄2)</text>
<rect x="164.56" y="303.15999999999997" width="128.44" height="110.2" fill="#e8f0ff" stroke="#1e293b" stroke-width="1.3"/>
<text x="228.78" y="359.26" font-size="12" font-weight="700" fill="#0f1e3d" text-anchor="middle">4</text>
<text x="228.78" y="370.26" font-size="8.5" fill="#64748b" text-anchor="middle">3380×2900</text>
<line x1="215.48" y1="303.15999999999997" x2="242.08" y2="303.15999999999997" stroke="#fff" stroke-width="9"/>
<line x1="215.48" y1="303.15999999999997" x2="242.08" y2="303.15999999999997" stroke="#dc2626" stroke-width="6"/>
<rect x="296.8" y="303.15999999999997" width="128.44" height="110.2" fill="#e8f0ff" stroke="#1e293b" stroke-width="1.3"/>
<text x="361.02" y="359.26" font-size="12" font-weight="700" fill="#0f1e3d" text-anchor="middle">4</text>
<text x="361.02" y="370.26" font-size="8.5" fill="#64748b" text-anchor="middle">3380×2900</text>
<line x1="347.72" y1="303.15999999999997" x2="374.32" y2="303.15999999999997" stroke="#fff" stroke-width="9"/>
<line x1="347.72" y1="303.15999999999997" x2="374.32" y2="303.15999999999997" stroke="#dc2626" stroke-width="6"/>
<rect x="429.04" y="303.15999999999997" width="128.44" height="110.2" fill="#e8f0ff" stroke="#1e293b" stroke-width="1.3"/>
<text x="493.26" y="359.26" font-size="12" font-weight="700" fill="#0f1e3d" text-anchor="middle">4</text>
<text x="493.26" y="370.26" font-size="8.5" fill="#64748b" text-anchor="middle">3380×2900</text>
<line x1="479.96" y1="303.15999999999997" x2="506.55999999999995" y2="303.15999999999997" stroke="#fff" stroke-width="9"/>
<line x1="479.96" y1="303.15999999999997" x2="506.55999999999995" y2="303.15999999999997" stroke="#dc2626" stroke-width="6"/>
<rect x="561.28" y="303.15999999999997" width="128.44" height="110.2" fill="#e8f0ff" stroke="#1e293b" stroke-width="1.3"/>
<text x="625.5" y="359.26" font-size="12" font-weight="700" fill="#0f1e3d" text-anchor="middle">4</text>
<text x="625.5" y="370.26" font-size="8.5" fill="#64748b" text-anchor="middle">3380×2900</text>
<line x1="612.2" y1="303.15999999999997" x2="638.8" y2="303.15999999999997" stroke="#fff" stroke-width="9"/>
<line x1="612.2" y1="303.15999999999997" x2="638.8" y2="303.15999999999997" stroke="#dc2626" stroke-width="6"/>
<rect x="693.52" y="303.15999999999997" width="128.44" height="110.2" fill="#e8f0ff" stroke="#1e293b" stroke-width="1.3"/>
<text x="757.74" y="359.26" font-size="12" font-weight="700" fill="#0f1e3d" text-anchor="middle">4</text>
<text x="757.74" y="370.26" font-size="8.5" fill="#64748b" text-anchor="middle">3380×2900</text>
<line x1="744.44" y1="303.15999999999997" x2="771.0400000000001" y2="303.15999999999997" stroke="#fff" stroke-width="9"/>
<line x1="744.44" y1="303.15999999999997" x2="771.0400000000001" y2="303.15999999999997" stroke="#dc2626" stroke-width="6"/>
<rect x="825.76" y="303.15999999999997" width="128.44" height="110.2" fill="#e8f0ff" stroke="#1e293b" stroke-width="1.3"/>
<text x="889.98" y="359.26" font-size="12" font-weight="700" fill="#0f1e3d" text-anchor="middle">4</text>
<text x="889.98" y="370.26" font-size="8.5" fill="#64748b" text-anchor="middle">3380×2900</text>
<line x1="876.68" y1="303.15999999999997" x2="903.2800000000001" y2="303.15999999999997" stroke="#fff" stroke-width="9"/>
<line x1="876.68" y1="303.15999999999997" x2="903.2800000000001" y2="303.15999999999997" stroke="#dc2626" stroke-width="6"/>
<rect x="164.56" y="417.16" width="128.44" height="110.2" fill="#e8f0ff" stroke="#1e293b" stroke-width="1.3"/>
<text x="228.78" y="473.26" font-size="12" font-weight="700" fill="#0f1e3d" text-anchor="middle">4</text>
<text x="228.78" y="484.26" font-size="8.5" fill="#64748b" text-anchor="middle">3380×2900</text>
<line x1="215.48" y1="527.36" x2="242.08" y2="527.36" stroke="#fff" stroke-width="9"/>
<line x1="215.48" y1="527.36" x2="242.08" y2="527.36" stroke="#dc2626" stroke-width="6"/>
<rect x="296.8" y="417.16" width="128.44" height="110.2" fill="#e8f0ff" stroke="#1e293b" stroke-width="1.3"/>
<text x="361.02" y="473.26" font-size="12" font-weight="700" fill="#0f1e3d" text-anchor="middle">4</text>
<text x="361.02" y="484.26" font-size="8.5" fill="#64748b" text-anchor="middle">3380×2900</text>
<line x1="347.72" y1="527.36" x2="374.32" y2="527.36" stroke="#fff" stroke-width="9"/>
<line x1="347.72" y1="527.36" x2="374.32" y2="527.36" stroke="#dc2626" stroke-width="6"/>
<rect x="429.04" y="417.16" width="128.44" height="110.2" fill="#e8f0ff" stroke="#1e293b" stroke-width="1.3"/>
<text x="493.26" y="473.26" font-size="12" font-weight="700" fill="#0f1e3d" text-anchor="middle">4</text>
<text x="493.26" y="484.26" font-size="8.5" fill="#64748b" text-anchor="middle">3380×2900</text>
<line x1="479.96" y1="527.36" x2="506.55999999999995" y2="527.36" stroke="#fff" stroke-width="9"/>
<line x1="479.96" y1="527.36" x2="506.55999999999995" y2="527.36" stroke="#dc2626" stroke-width="6"/>
<rect x="561.28" y="417.16" width="128.44" height="110.2" fill="#e8f0ff" stroke="#1e293b" stroke-width="1.3"/>
<text x="625.5" y="473.26" font-size="12" font-weight="700" fill="#0f1e3d" text-anchor="middle">4</text>
<text x="625.5" y="484.26" font-size="8.5" fill="#64748b" text-anchor="middle">3380×2900</text>
<line x1="612.2" y1="527.36" x2="638.8" y2="527.36" stroke="#fff" stroke-width="9"/>
<line x1="612.2" y1="527.36" x2="638.8" y2="527.36" stroke="#dc2626" stroke-width="6"/>
<rect x="693.52" y="417.16" width="128.44" height="110.2" fill="#e8f0ff" stroke="#1e293b" stroke-width="1.3"/>
<text x="757.74" y="473.26" font-size="12" font-weight="700" fill="#0f1e3d" text-anchor="middle">4</text>
<text x="757.74" y="484.26" font-size="8.5" fill="#64748b" text-anchor="middle">3380×2900</text>
<line x1="744.44" y1="527.36" x2="771.0400000000001" y2="527.36" stroke="#fff" stroke-width="9"/>
<line x1="744.44" y1="527.36" x2="771.0400000000001" y2="527.36" stroke="#dc2626" stroke-width="6"/>
<rect x="825.76" y="417.16" width="128.44" height="110.2" fill="#e8f0ff" stroke="#1e293b" stroke-width="1.3"/>
<text x="889.98" y="473.26" font-size="12" font-weight="700" fill="#0f1e3d" text-anchor="middle">4</text>
<text x="889.98" y="484.26" font-size="8.5" fill="#64748b" text-anchor="middle">3380×2900</text>
<line x1="876.68" y1="527.36" x2="903.2800000000001" y2="527.36" stroke="#fff" stroke-width="9"/>
<line x1="876.68" y1="527.36" x2="903.2800000000001" y2="527.36" stroke="#dc2626" stroke-width="6"/>
<rect x="160" y="531.1600000000001" width="794.1999999999999" height="41.800000000000004" fill="#e2e8f0"/>
<text x="557.0999999999999" y="555.0600000000001" font-size="8" fill="#475569" text-anchor="middle">복도 1,100  (양면 — 줄3·줄4)</text>
<rect x="164.56" y="576.76" width="83.60000000000001" height="136.8" fill="#dce8ff" stroke="#1e293b" stroke-width="1.3"/>
<text x="206.36" y="646.1600000000001" font-size="12" font-weight="700" fill="#0f1e3d" text-anchor="middle">2</text>
<text x="206.36" y="657.1600000000001" font-size="8.5" fill="#64748b" text-anchor="middle">2200×3600</text>
<line x1="193.06" y1="576.76" x2="219.66000000000003" y2="576.76" stroke="#fff" stroke-width="9"/>
<line x1="193.06" y1="576.76" x2="219.66000000000003" y2="576.76" stroke="#dc2626" stroke-width="6"/>
<rect x="251.95999999999998" y="576.76" width="83.60000000000001" height="136.8" fill="#dce8ff" stroke="#1e293b" stroke-width="1.3"/>
<text x="293.76" y="646.1600000000001" font-size="12" font-weight="700" fill="#0f1e3d" text-anchor="middle">2</text>
<text x="293.76" y="657.1600000000001" font-size="8.5" fill="#64748b" text-anchor="middle">2200×3600</text>
<line x1="280.46" y1="576.76" x2="307.06" y2="576.76" stroke="#fff" stroke-width="9"/>
<line x1="280.46" y1="576.76" x2="307.06" y2="576.76" stroke="#dc2626" stroke-width="6"/>
<rect x="339.36" y="576.76" width="83.60000000000001" height="136.8" fill="#dce8ff" stroke="#1e293b" stroke-width="1.3"/>
<text x="381.16" y="646.1600000000001" font-size="12" font-weight="700" fill="#0f1e3d" text-anchor="middle">2</text>
<text x="381.16" y="657.1600000000001" font-size="8.5" fill="#64748b" text-anchor="middle">2200×3600</text>
<line x1="367.86" y1="576.76" x2="394.46000000000004" y2="576.76" stroke="#fff" stroke-width="9"/>
<line x1="367.86" y1="576.76" x2="394.46000000000004" y2="576.76" stroke="#dc2626" stroke-width="6"/>
<rect x="426.76" y="576.76" width="71.82" height="66.5" fill="#ede8ff" stroke="#1e293b" stroke-width="1.3"/>
<text x="462.67" y="611.01" font-size="12" font-weight="700" fill="#0f1e3d" text-anchor="middle">1</text>
<text x="462.67" y="622.01" font-size="8.5" fill="#64748b" text-anchor="middle">1890×1750</text>
<line x1="449.37" y1="576.76" x2="475.96999999999997" y2="576.76" stroke="#fff" stroke-width="9"/>
<line x1="449.37" y1="576.76" x2="475.96999999999997" y2="576.76" stroke="#dc2626" stroke-width="6"/>
<rect x="426.76" y="647.06" width="71.82" height="66.5" fill="#ede8ff" stroke="#1e293b" stroke-width="1.3"/>
<text x="462.67" y="681.31" font-size="12" font-weight="700" fill="#0f1e3d" text-anchor="middle">1</text>
<text x="462.67" y="692.31" font-size="8.5" fill="#64748b" text-anchor="middle">1890×1750</text>
<line x1="449.37" y1="713.56" x2="475.96999999999997" y2="713.56" stroke="#fff" stroke-width="9"/>
<line x1="449.37" y1="713.56" x2="475.96999999999997" y2="713.56" stroke="#dc2626" stroke-width="6"/>
<rect x="502.38" y="576.76" width="71.82" height="66.5" fill="#ede8ff" stroke="#1e293b" stroke-width="1.3"/>
<text x="538.29" y="611.01" font-size="12" font-weight="700" fill="#0f1e3d" text-anchor="middle">1</text>
<text x="538.29" y="622.01" font-size="8.5" fill="#64748b" text-anchor="middle">1890×1750</text>
<line x1="524.99" y1="576.76" x2="551.5899999999999" y2="576.76" stroke="#fff" stroke-width="9"/>
<line x1="524.99" y1="576.76" x2="551.5899999999999" y2="576.76" stroke="#dc2626" stroke-width="6"/>
<rect x="502.38" y="647.06" width="71.82" height="66.5" fill="#ede8ff" stroke="#1e293b" stroke-width="1.3"/>
<text x="538.29" y="681.31" font-size="12" font-weight="700" fill="#0f1e3d" text-anchor="middle">1</text>
<text x="538.29" y="692.31" font-size="8.5" fill="#64748b" text-anchor="middle">1890×1750</text>
<line x1="524.99" y1="713.56" x2="551.5899999999999" y2="713.56" stroke="#fff" stroke-width="9"/>
<line x1="524.99" y1="713.56" x2="551.5899999999999" y2="713.56" stroke="#dc2626" stroke-width="6"/>
<rect x="578" y="576.76" width="71.82" height="66.5" fill="#ede8ff" stroke="#1e293b" stroke-width="1.3"/>
<text x="613.9100000000001" y="611.01" font-size="12" font-weight="700" fill="#0f1e3d" text-anchor="middle">1</text>
<text x="613.9100000000001" y="622.01" font-size="8.5" fill="#64748b" text-anchor="middle">1890×1750</text>
<line x1="600.61" y1="576.76" x2="627.21" y2="576.76" stroke="#fff" stroke-width="9"/>
<line x1="600.61" y1="576.76" x2="627.21" y2="576.76" stroke="#dc2626" stroke-width="6"/>
<rect x="578" y="647.06" width="71.82" height="66.5" fill="#ede8ff" stroke="#1e293b" stroke-width="1.3"/>
<text x="613.9100000000001" y="681.31" font-size="12" font-weight="700" fill="#0f1e3d" text-anchor="middle">1</text>
<text x="613.9100000000001" y="692.31" font-size="8.5" fill="#64748b" text-anchor="middle">1890×1750</text>
<line x1="600.61" y1="713.56" x2="627.21" y2="713.56" stroke="#fff" stroke-width="9"/>
<line x1="600.61" y1="713.56" x2="627.21" y2="713.56" stroke="#dc2626" stroke-width="6"/>
<rect x="653.62" y="576.76" width="71.82" height="66.5" fill="#ede8ff" stroke="#1e293b" stroke-width="1.3"/>
<text x="689.53" y="611.01" font-size="12" font-weight="700" fill="#0f1e3d" text-anchor="middle">1</text>
<text x="689.53" y="622.01" font-size="8.5" fill="#64748b" text-anchor="middle">1890×1750</text>
<line x1="676.23" y1="576.76" x2="702.83" y2="576.76" stroke="#fff" stroke-width="9"/>
<line x1="676.23" y1="576.76" x2="702.83" y2="576.76" stroke="#dc2626" stroke-width="6"/>
<rect x="653.62" y="647.06" width="71.82" height="66.5" fill="#ede8ff" stroke="#1e293b" stroke-width="1.3"/>
<text x="689.53" y="681.31" font-size="12" font-weight="700" fill="#0f1e3d" text-anchor="middle">1</text>
<text x="689.53" y="692.31" font-size="8.5" fill="#64748b" text-anchor="middle">1890×1750</text>
<line x1="676.23" y1="713.56" x2="702.83" y2="713.56" stroke="#fff" stroke-width="9"/>
<line x1="676.23" y1="713.56" x2="702.83" y2="713.56" stroke="#dc2626" stroke-width="6"/>
<rect x="729.24" y="576.76" width="71.82" height="66.5" fill="#ede8ff" stroke="#1e293b" stroke-width="1.3"/>
<text x="765.15" y="611.01" font-size="12" font-weight="700" fill="#0f1e3d" text-anchor="middle">1</text>
<text x="765.15" y="622.01" font-size="8.5" fill="#64748b" text-anchor="middle">1890×1750</text>
<line x1="751.85" y1="576.76" x2="778.45" y2="576.76" stroke="#fff" stroke-width="9"/>
<line x1="751.85" y1="576.76" x2="778.45" y2="576.76" stroke="#dc2626" stroke-width="6"/>
<rect x="729.24" y="647.06" width="71.82" height="66.5" fill="#ede8ff" stroke="#1e293b" stroke-width="1.3"/>
<text x="765.15" y="681.31" font-size="12" font-weight="700" fill="#0f1e3d" text-anchor="middle">1</text>
<text x="765.15" y="692.31" font-size="8.5" fill="#64748b" text-anchor="middle">1890×1750</text>
<line x1="751.85" y1="713.56" x2="778.45" y2="713.56" stroke="#fff" stroke-width="9"/>
<line x1="751.85" y1="713.56" x2="778.45" y2="713.56" stroke="#dc2626" stroke-width="6"/>
<rect x="804.8599999999999" y="576.76" width="71.82" height="66.5" fill="#ede8ff" stroke="#1e293b" stroke-width="1.3"/>
<text x="840.77" y="611.01" font-size="12" font-weight="700" fill="#0f1e3d" text-anchor="middle">1</text>
<text x="840.77" y="622.01" font-size="8.5" fill="#64748b" text-anchor="middle">1890×1750</text>
<line x1="827.4699999999999" y1="576.76" x2="854.07" y2="576.76" stroke="#fff" stroke-width="9"/>
<line x1="827.4699999999999" y1="576.76" x2="854.07" y2="576.76" stroke="#dc2626" stroke-width="6"/>
<rect x="804.8599999999999" y="647.06" width="71.82" height="66.5" fill="#ede8ff" stroke="#1e293b" stroke-width="1.3"/>
<text x="840.77" y="681.31" font-size="12" font-weight="700" fill="#0f1e3d" text-anchor="middle">1</text>
<text x="840.77" y="692.31" font-size="8.5" fill="#64748b" text-anchor="middle">1890×1750</text>
<line x1="827.4699999999999" y1="713.56" x2="854.07" y2="713.56" stroke="#fff" stroke-width="9"/>
<line x1="827.4699999999999" y1="713.56" x2="854.07" y2="713.56" stroke="#dc2626" stroke-width="6"/>
<rect x="880.4799999999999" y="576.76" width="71.82" height="66.5" fill="#fef9c3" stroke="#1e293b" stroke-width="1.3"/>
<text x="916.3899999999999" y="611.01" font-size="12" font-weight="700" fill="#0f1e3d" text-anchor="middle">우편</text>
<text x="916.3899999999999" y="622.01" font-size="8.5" fill="#64748b" text-anchor="middle">1890×1750</text>
<line x1="903.0899999999998" y1="576.76" x2="929.6899999999999" y2="576.76" stroke="#fff" stroke-width="9"/>
<line x1="903.0899999999998" y1="576.76" x2="929.6899999999999" y2="576.76" stroke="#dc2626" stroke-width="6"/>
<rect x="880.4799999999999" y="647.06" width="71.82" height="66.5" fill="#f1f5f4" stroke="#1e293b" stroke-width="1.3"/>
<text x="916.3899999999999" y="681.31" font-size="12" font-weight="700" fill="#0f1e3d" text-anchor="middle">창고</text>
<text x="916.3899999999999" y="692.31" font-size="8.5" fill="#64748b" text-anchor="middle">1890×1750</text>
<line x1="903.0899999999998" y1="713.56" x2="929.6899999999999" y2="713.56" stroke="#fff" stroke-width="9"/>
<line x1="903.0899999999998" y1="713.56" x2="929.6899999999999" y2="713.56" stroke="#dc2626" stroke-width="6"/>
<rect x="160" y="717.36" width="794.1999999999999" height="41.800000000000004" fill="#e2e8f0"/>
<text x="557.0999999999999" y="741.2600000000001" font-size="8" fill="#475569" text-anchor="middle">복도 1,100  (양면 — 줄4·줄5)</text>
<rect x="164.56" y="759.16" width="71.82" height="66.5" fill="#ede8ff" stroke="#1e293b" stroke-width="1.3"/>
<text x="200.47" y="793.41" font-size="12" font-weight="700" fill="#0f1e3d" text-anchor="middle">1</text>
<text x="200.47" y="804.41" font-size="8.5" fill="#64748b" text-anchor="middle">1890×1750</text>
<line x1="187.17" y1="759.16" x2="213.77" y2="759.16" stroke="#fff" stroke-width="9"/>
<line x1="187.17" y1="759.16" x2="213.77" y2="759.16" stroke="#dc2626" stroke-width="6"/>
<rect x="164.56" y="829.46" width="71.82" height="66.5" fill="#ede8ff" stroke="#1e293b" stroke-width="1.3"/>
<text x="200.47" y="863.71" font-size="12" font-weight="700" fill="#0f1e3d" text-anchor="middle">1</text>
<text x="200.47" y="874.71" font-size="8.5" fill="#64748b" text-anchor="middle">1890×1750</text>
<line x1="187.17" y1="895.96" x2="213.77" y2="895.96" stroke="#fff" stroke-width="9"/>
<line x1="187.17" y1="895.96" x2="213.77" y2="895.96" stroke="#dc2626" stroke-width="6"/>
<rect x="240.18" y="759.16" width="71.82" height="66.5" fill="#ede8ff" stroke="#1e293b" stroke-width="1.3"/>
<text x="276.09" y="793.41" font-size="12" font-weight="700" fill="#0f1e3d" text-anchor="middle">1</text>
<text x="276.09" y="804.41" font-size="8.5" fill="#64748b" text-anchor="middle">1890×1750</text>
<line x1="262.78999999999996" y1="759.16" x2="289.39" y2="759.16" stroke="#fff" stroke-width="9"/>
<line x1="262.78999999999996" y1="759.16" x2="289.39" y2="759.16" stroke="#dc2626" stroke-width="6"/>
<rect x="240.18" y="829.46" width="71.82" height="66.5" fill="#ede8ff" stroke="#1e293b" stroke-width="1.3"/>
<text x="276.09" y="863.71" font-size="12" font-weight="700" fill="#0f1e3d" text-anchor="middle">1</text>
<text x="276.09" y="874.71" font-size="8.5" fill="#64748b" text-anchor="middle">1890×1750</text>
<line x1="262.78999999999996" y1="895.96" x2="289.39" y2="895.96" stroke="#fff" stroke-width="9"/>
<line x1="262.78999999999996" y1="895.96" x2="289.39" y2="895.96" stroke="#dc2626" stroke-width="6"/>
<rect x="315.79999999999995" y="759.16" width="71.82" height="66.5" fill="#ede8ff" stroke="#1e293b" stroke-width="1.3"/>
<text x="351.71000000000004" y="793.41" font-size="12" font-weight="700" fill="#0f1e3d" text-anchor="middle">1</text>
<text x="351.71000000000004" y="804.41" font-size="8.5" fill="#64748b" text-anchor="middle">1890×1750</text>
<line x1="338.41" y1="759.16" x2="365.01" y2="759.16" stroke="#fff" stroke-width="9"/>
<line x1="338.41" y1="759.16" x2="365.01" y2="759.16" stroke="#dc2626" stroke-width="6"/>
<rect x="315.79999999999995" y="829.46" width="71.82" height="66.5" fill="#ede8ff" stroke="#1e293b" stroke-width="1.3"/>
<text x="351.71000000000004" y="863.71" font-size="12" font-weight="700" fill="#0f1e3d" text-anchor="middle">1</text>
<text x="351.71000000000004" y="874.71" font-size="8.5" fill="#64748b" text-anchor="middle">1890×1750</text>
<line x1="338.41" y1="895.96" x2="365.01" y2="895.96" stroke="#fff" stroke-width="9"/>
<line x1="338.41" y1="895.96" x2="365.01" y2="895.96" stroke="#dc2626" stroke-width="6"/>
<rect x="391.41999999999996" y="759.16" width="71.82" height="66.5" fill="#ede8ff" stroke="#1e293b" stroke-width="1.3"/>
<text x="427.33" y="793.41" font-size="12" font-weight="700" fill="#0f1e3d" text-anchor="middle">1</text>
<text x="427.33" y="804.41" font-size="8.5" fill="#64748b" text-anchor="middle">1890×1750</text>
<line x1="414.03000000000003" y1="759.16" x2="440.63" y2="759.16" stroke="#fff" stroke-width="9"/>
<line x1="414.03000000000003" y1="759.16" x2="440.63" y2="759.16" stroke="#dc2626" stroke-width="6"/>
<rect x="391.41999999999996" y="829.46" width="71.82" height="66.5" fill="#ede8ff" stroke="#1e293b" stroke-width="1.3"/>
<text x="427.33" y="863.71" font-size="12" font-weight="700" fill="#0f1e3d" text-anchor="middle">1</text>
<text x="427.33" y="874.71" font-size="8.5" fill="#64748b" text-anchor="middle">1890×1750</text>
<line x1="414.03000000000003" y1="895.96" x2="440.63" y2="895.96" stroke="#fff" stroke-width="9"/>
<line x1="414.03000000000003" y1="895.96" x2="440.63" y2="895.96" stroke="#dc2626" stroke-width="6"/>
<rect x="467.04" y="759.16" width="71.82" height="66.5" fill="#ede8ff" stroke="#1e293b" stroke-width="1.3"/>
<text x="502.95" y="793.41" font-size="12" font-weight="700" fill="#0f1e3d" text-anchor="middle">1</text>
<text x="502.95" y="804.41" font-size="8.5" fill="#64748b" text-anchor="middle">1890×1750</text>
<line x1="489.65000000000003" y1="759.16" x2="516.25" y2="759.16" stroke="#fff" stroke-width="9"/>
<line x1="489.65000000000003" y1="759.16" x2="516.25" y2="759.16" stroke="#dc2626" stroke-width="6"/>
<rect x="467.04" y="829.46" width="71.82" height="66.5" fill="#ede8ff" stroke="#1e293b" stroke-width="1.3"/>
<text x="502.95" y="863.71" font-size="12" font-weight="700" fill="#0f1e3d" text-anchor="middle">1</text>
<text x="502.95" y="874.71" font-size="8.5" fill="#64748b" text-anchor="middle">1890×1750</text>
<line x1="489.65000000000003" y1="895.96" x2="516.25" y2="895.96" stroke="#fff" stroke-width="9"/>
<line x1="489.65000000000003" y1="895.96" x2="516.25" y2="895.96" stroke="#dc2626" stroke-width="6"/>
<rect x="542.6600000000001" y="759.16" width="71.82" height="66.5" fill="#ede8ff" stroke="#1e293b" stroke-width="1.3"/>
<text x="578.57" y="793.41" font-size="12" font-weight="700" fill="#0f1e3d" text-anchor="middle">1</text>
<text x="578.57" y="804.41" font-size="8.5" fill="#64748b" text-anchor="middle">1890×1750</text>
<line x1="565.27" y1="759.16" x2="591.87" y2="759.16" stroke="#fff" stroke-width="9"/>
<line x1="565.27" y1="759.16" x2="591.87" y2="759.16" stroke="#dc2626" stroke-width="6"/>
<rect x="542.6600000000001" y="829.46" width="71.82" height="66.5" fill="#ede8ff" stroke="#1e293b" stroke-width="1.3"/>
<text x="578.57" y="863.71" font-size="12" font-weight="700" fill="#0f1e3d" text-anchor="middle">1</text>
<text x="578.57" y="874.71" font-size="8.5" fill="#64748b" text-anchor="middle">1890×1750</text>
<line x1="565.27" y1="895.96" x2="591.87" y2="895.96" stroke="#fff" stroke-width="9"/>
<line x1="565.27" y1="895.96" x2="591.87" y2="895.96" stroke="#dc2626" stroke-width="6"/>
<rect x="618.28" y="759.16" width="71.82" height="66.5" fill="#ede8ff" stroke="#1e293b" stroke-width="1.3"/>
<text x="654.19" y="793.41" font-size="12" font-weight="700" fill="#0f1e3d" text-anchor="middle">1</text>
<text x="654.19" y="804.41" font-size="8.5" fill="#64748b" text-anchor="middle">1890×1750</text>
<line x1="640.8900000000001" y1="759.16" x2="667.49" y2="759.16" stroke="#fff" stroke-width="9"/>
<line x1="640.8900000000001" y1="759.16" x2="667.49" y2="759.16" stroke="#dc2626" stroke-width="6"/>
<rect x="618.28" y="829.46" width="71.82" height="66.5" fill="#ede8ff" stroke="#1e293b" stroke-width="1.3"/>
<text x="654.19" y="863.71" font-size="12" font-weight="700" fill="#0f1e3d" text-anchor="middle">1</text>
<text x="654.19" y="874.71" font-size="8.5" fill="#64748b" text-anchor="middle">1890×1750</text>
<line x1="640.8900000000001" y1="895.96" x2="667.49" y2="895.96" stroke="#fff" stroke-width="9"/>
<line x1="640.8900000000001" y1="895.96" x2="667.49" y2="895.96" stroke="#dc2626" stroke-width="6"/>
<rect x="693.9" y="759.16" width="71.82" height="66.5" fill="#ede8ff" stroke="#1e293b" stroke-width="1.3"/>
<text x="729.8100000000001" y="793.41" font-size="12" font-weight="700" fill="#0f1e3d" text-anchor="middle">1</text>
<text x="729.8100000000001" y="804.41" font-size="8.5" fill="#64748b" text-anchor="middle">1890×1750</text>
<line x1="716.5100000000001" y1="759.16" x2="743.11" y2="759.16" stroke="#fff" stroke-width="9"/>
<line x1="716.5100000000001" y1="759.16" x2="743.11" y2="759.16" stroke="#dc2626" stroke-width="6"/>
<rect x="693.9" y="829.46" width="71.82" height="66.5" fill="#ede8ff" stroke="#1e293b" stroke-width="1.3"/>
<text x="729.8100000000001" y="863.71" font-size="12" font-weight="700" fill="#0f1e3d" text-anchor="middle">1</text>
<text x="729.8100000000001" y="874.71" font-size="8.5" fill="#64748b" text-anchor="middle">1890×1750</text>
<line x1="716.5100000000001" y1="895.96" x2="743.11" y2="895.96" stroke="#fff" stroke-width="9"/>
<line x1="716.5100000000001" y1="895.96" x2="743.11" y2="895.96" stroke="#dc2626" stroke-width="6"/>
<rect x="769.52" y="759.16" width="71.82" height="66.5" fill="#ede8ff" stroke="#1e293b" stroke-width="1.3"/>
<text x="805.43" y="793.41" font-size="12" font-weight="700" fill="#0f1e3d" text-anchor="middle">1</text>
<text x="805.43" y="804.41" font-size="8.5" fill="#64748b" text-anchor="middle">1890×1750</text>
<line x1="792.1299999999999" y1="759.16" x2="818.73" y2="759.16" stroke="#fff" stroke-width="9"/>
<line x1="792.1299999999999" y1="759.16" x2="818.73" y2="759.16" stroke="#dc2626" stroke-width="6"/>
<rect x="769.52" y="829.46" width="71.82" height="66.5" fill="#ede8ff" stroke="#1e293b" stroke-width="1.3"/>
<text x="805.43" y="863.71" font-size="12" font-weight="700" fill="#0f1e3d" text-anchor="middle">1</text>
<text x="805.43" y="874.71" font-size="8.5" fill="#64748b" text-anchor="middle">1890×1750</text>
<line x1="792.1299999999999" y1="895.96" x2="818.73" y2="895.96" stroke="#fff" stroke-width="9"/>
<line x1="792.1299999999999" y1="895.96" x2="818.73" y2="895.96" stroke="#dc2626" stroke-width="6"/>
<rect x="845.1399999999999" y="759.16" width="71.82" height="66.5" fill="#ede8ff" stroke="#1e293b" stroke-width="1.3"/>
<text x="881.05" y="793.41" font-size="12" font-weight="700" fill="#0f1e3d" text-anchor="middle">1</text>
<text x="881.05" y="804.41" font-size="8.5" fill="#64748b" text-anchor="middle">1890×1750</text>
<line x1="867.7499999999999" y1="759.16" x2="894.35" y2="759.16" stroke="#fff" stroke-width="9"/>
<line x1="867.7499999999999" y1="759.16" x2="894.35" y2="759.16" stroke="#dc2626" stroke-width="6"/>
<rect x="845.1399999999999" y="829.46" width="71.82" height="66.5" fill="#ede8ff" stroke="#1e293b" stroke-width="1.3"/>
<text x="881.05" y="863.71" font-size="12" font-weight="700" fill="#0f1e3d" text-anchor="middle">1</text>
<text x="881.05" y="874.71" font-size="8.5" fill="#64748b" text-anchor="middle">1890×1750</text>
<line x1="867.7499999999999" y1="895.96" x2="894.35" y2="895.96" stroke="#fff" stroke-width="9"/>
<line x1="867.7499999999999" y1="895.96" x2="894.35" y2="895.96" stroke="#dc2626" stroke-width="6"/>
<rect x="920.7599999999999" y="759.16" width="33.4400000000001" height="136.8" fill="#e8e8e8" stroke="#1e293b" stroke-width="1.3"/>
<text x="937.4799999999999" y="827.5600000000001" font-size="7" fill="#475569" text-anchor="middle" transform="rotate(-90 937.4799999999999 827.5600000000001)">사물함</text>
<rect x="160" y="899.76" width="794.1999999999999" height="32.3" fill="#e2e8f0"/>
<text x="557.0999999999999" y="918.91" font-size="8" fill="#475569" text-anchor="middle">복도 1,100 (공용 진입)</text>
<rect x="161.9" y="932.0600000000001" width="129.2" height="75.24" fill="#eef3fb" stroke="#1e293b" stroke-width="1.3"/>
<text x="226.5" y="969.68" font-size="12" font-weight="700" fill="#0f1e3d" text-anchor="middle">회의실 6인</text>
<text x="226.5" y="981.68" font-size="8.5" fill="#64748b" text-anchor="middle">3400×1980</text>
<rect x="294.9" y="932.0600000000001" width="110.2" height="75.24" fill="#eef3fb" stroke="#1e293b" stroke-width="1.3"/>
<text x="350" y="969.68" font-size="12" font-weight="700" fill="#0f1e3d" text-anchor="middle">회의실 4인</text>
<text x="350" y="981.68" font-size="8.5" fill="#64748b" text-anchor="middle">2900×1980</text>
<rect x="408.9" y="932.0600000000001" width="68.4" height="75.24" fill="#e8f4fb" stroke="#1e293b" stroke-width="1.3"/>
<text x="443.1" y="969.68" font-size="12" font-weight="700" fill="#0f1e3d" text-anchor="middle">회의실 2인</text>
<text x="443.1" y="981.68" font-size="8.5" fill="#64748b" text-anchor="middle">1800×1980</text>
<rect x="481.09999999999997" y="932.0600000000001" width="87.39999999999999" height="75.24" fill="#f1f5f9" stroke="#1e293b" stroke-width="1.3"/>
<text x="524.8" y="969.68" font-size="12" font-weight="700" fill="#0f1e3d" text-anchor="middle">OA</text>
<text x="524.8" y="981.68" font-size="8.5" fill="#64748b" text-anchor="middle">2300×1980</text>
<rect x="572.3" y="932.0600000000001" width="380" height="75.24" fill="#f0fdf4" stroke="#1e293b" stroke-width="1.3"/>
<text x="762.3" y="969.68" font-size="12" font-weight="700" fill="#0f1e3d" text-anchor="middle">라운지 + 탕비 + 리셉션 (입구 동선)</text>
<text x="762.3" y="981.68" font-size="8.5" fill="#64748b" text-anchor="middle">10000×1980</text>
<text x="578" y="1053" font-size="13" font-weight="800" fill="#15803d" text-anchor="middle">독립실 52호실 / 106석 (4인 17·2인 3·1인 32) + 회의실 6/4/2인 + 우편·소포 + 창고 + OA + 라운지·탕비·리셉션</text>
<defs><marker id="a" markerWidth="10" markerHeight="10" refX="5" refY="5" orient="auto"><path d="M2,2 L8,5 L2,8" fill="none" stroke="#b91c1c" stroke-width="1.3"/></marker></defs>
<line x1="160" y1="126" x2="996" y2="126" stroke="#b91c1c" stroke-width="1.2" marker-start="url(#a)" marker-end="url(#a)"/>
<text x="578" y="120" font-size="11" fill="#b91c1c" text-anchor="middle">22,000</text>
<line x1="110" y1="158" x2="110" y2="1013" stroke="#b91c1c" stroke-width="1.2" marker-start="url(#a)" marker-end="url(#a)"/>
<text x="101" y="585.5" font-size="11" fill="#b91c1c" text-anchor="middle" transform="rotate(-90 101 585.5)">22,500</text>
<text x="160" y="80" font-size="12" font-weight="700" fill="#15803d">독립실 52호실 / 106석 — 4인 17실 · 2인 3실 · 1인 32실</text></svg>