<svg xmlns="http://www.w3.org/2000/svg" width="1140" height="920" font-family="Malgun Gothic,Pretendard,sans-serif">
<rect width="1140" height="920" fill="#fff"/>
<text x="160" y="40" font-size="22" font-weight="800" fill="#0f1e3d">분당 100평형 — 120·150평과 동일가(133/78/47만) · 판교와 동일 배치도</text>
<text x="160" y="60" font-size="11" fill="#64748b">줄1: 4인 3,670×2,400(풀폭·가로형) · 줄2~3: 4인 3,440×2,900 · 줄4: 2인 2,200×3,600 · 1인 1,890×1,750 · 복도1,100</text>
<rect x="160" y="158" width="722" height="661.1999999999999" fill="#3a4a63"/>
<rect x="161.9" y="159.9" width="718.1999999999999" height="657.3999999999999" fill="#f8fafc" stroke="#0f1e3d" stroke-width="3"/>
<rect x="836.4" y="257.56" width="41.800000000000004" height="559.74" fill="#e2e8f0"/>
<text x="857.3000000000001" y="519" font-size="8" fill="#475569" text-anchor="middle" transform="rotate(-90 857.3000000000001 519)">복도 1,100 (입구연결)</text>
<rect x="872" y="735.6" width="20" height="79.8" fill="#1d4ed8" stroke="#fff" stroke-width="2"/>
<polygon points="904,775.5 884,767.9 884,783.1" fill="#1d4ed8"/>
<rect x="906" y="761.5" width="46" height="28" rx="4" fill="#1d4ed8"/>
<text x="929" y="780.5" font-size="14" font-weight="900" fill="#fff" text-anchor="middle">입구</text>
<rect x="164.56" y="162.56" width="139.46" height="91.2" fill="#e8f0ff" stroke="#1e293b" stroke-width="1.3"/>
<text x="234.29000000000002" y="209.16" font-size="12" font-weight="700" fill="#0f1e3d" text-anchor="middle">4</text>
<text x="234.29000000000002" y="220.16" font-size="8.5" fill="#64748b" text-anchor="middle">3670×2400</text>
<line x1="222.89" y1="253.76" x2="245.69" y2="253.76" stroke="#fff" stroke-width="3.5"/>
<line x1="222.89" y1="253.76" x2="245.69" y2="253.76" stroke="#b45309" stroke-width="2.5"/>
<rect x="307.82" y="162.56" width="139.46" height="91.2" fill="#e8f0ff" stroke="#1e293b" stroke-width="1.3"/>
<text x="377.54999999999995" y="209.16" font-size="12" font-weight="700" fill="#0f1e3d" text-anchor="middle">4</text>
<text x="377.54999999999995" y="220.16" font-size="8.5" fill="#64748b" text-anchor="middle">3670×2400</text>
<line x1="366.15" y1="253.76" x2="388.95" y2="253.76" stroke="#fff" stroke-width="3.5"/>
<line x1="366.15" y1="253.76" x2="388.95" y2="253.76" stroke="#b45309" stroke-width="2.5"/>
<rect x="451.08" y="162.56" width="139.46" height="91.2" fill="#e8f0ff" stroke="#1e293b" stroke-width="1.3"/>
<text x="520.8100000000001" y="209.16" font-size="12" font-weight="700" fill="#0f1e3d" text-anchor="middle">4</text>
<text x="520.8100000000001" y="220.16" font-size="8.5" fill="#64748b" text-anchor="middle">3670×2400</text>
<line x1="509.41" y1="253.76" x2="532.21" y2="253.76" stroke="#fff" stroke-width="3.5"/>
<line x1="509.41" y1="253.76" x2="532.21" y2="253.76" stroke="#b45309" stroke-width="2.5"/>
<rect x="594.3399999999999" y="162.56" width="139.46" height="91.2" fill="#e8f0ff" stroke="#1e293b" stroke-width="1.3"/>
<text x="664.07" y="209.16" font-size="12" font-weight="700" fill="#0f1e3d" text-anchor="middle">4</text>
<text x="664.07" y="220.16" font-size="8.5" fill="#64748b" text-anchor="middle">3670×2400</text>
<line x1="652.6700000000001" y1="253.76" x2="675.47" y2="253.76" stroke="#fff" stroke-width="3.5"/>
<line x1="652.6700000000001" y1="253.76" x2="675.47" y2="253.76" stroke="#b45309" stroke-width="2.5"/>
<rect x="737.6" y="162.56" width="139.46" height="91.2" fill="#e8f0ff" stroke="#1e293b" stroke-width="1.3"/>
<text x="807.33" y="209.16" font-size="12" font-weight="700" fill="#0f1e3d" text-anchor="middle">4</text>
<text x="807.33" y="220.16" font-size="8.5" fill="#64748b" text-anchor="middle">3670×2400</text>
<line x1="795.93" y1="253.76" x2="818.73" y2="253.76" stroke="#fff" stroke-width="3.5"/>
<line x1="795.93" y1="253.76" x2="818.73" y2="253.76" stroke="#b45309" stroke-width="2.5"/>
<rect x="160" y="257.56" width="676.4" height="41.800000000000004" fill="#e2e8f0"/>
<text x="498.2" y="281.46" font-size="8" fill="#475569" text-anchor="middle">복도 1,100  (양면 — 줄1·줄2)</text>
<rect x="164.56" y="303.15999999999997" width="130.72" height="110.2" fill="#e8f0ff" stroke="#1e293b" stroke-width="1.3"/>
<text x="229.92" y="359.26" font-size="12" font-weight="700" fill="#0f1e3d" text-anchor="middle">4</text>
<text x="229.92" y="370.26" font-size="8.5" fill="#64748b" text-anchor="middle">3440×2900</text>
<line x1="218.51999999999998" y1="303.15999999999997" x2="241.32" y2="303.15999999999997" stroke="#fff" stroke-width="3.5"/>
<line x1="218.51999999999998" y1="303.15999999999997" x2="241.32" y2="303.15999999999997" stroke="#b45309" stroke-width="2.5"/>
<rect x="299.08000000000004" y="303.15999999999997" width="130.72" height="110.2" fill="#e8f0ff" stroke="#1e293b" stroke-width="1.3"/>
<text x="364.44" y="359.26" font-size="12" font-weight="700" fill="#0f1e3d" text-anchor="middle">4</text>
<text x="364.44" y="370.26" font-size="8.5" fill="#64748b" text-anchor="middle">3440×2900</text>
<line x1="353.03999999999996" y1="303.15999999999997" x2="375.84" y2="303.15999999999997" stroke="#fff" stroke-width="3.5"/>
<line x1="353.03999999999996" y1="303.15999999999997" x2="375.84" y2="303.15999999999997" stroke="#b45309" stroke-width="2.5"/>
<rect x="433.6" y="303.15999999999997" width="130.72" height="110.2" fill="#e8f0ff" stroke="#1e293b" stroke-width="1.3"/>
<text x="498.96" y="359.26" font-size="12" font-weight="700" fill="#0f1e3d" text-anchor="middle">4</text>
<text x="498.96" y="370.26" font-size="8.5" fill="#64748b" text-anchor="middle">3440×2900</text>
<line x1="487.55999999999995" y1="303.15999999999997" x2="510.36" y2="303.15999999999997" stroke="#fff" stroke-width="3.5"/>
<line x1="487.55999999999995" y1="303.15999999999997" x2="510.36" y2="303.15999999999997" stroke="#b45309" stroke-width="2.5"/>
<rect x="568.12" y="303.15999999999997" width="130.72" height="110.2" fill="#e8f0ff" stroke="#1e293b" stroke-width="1.3"/>
<text x="633.48" y="359.26" font-size="12" font-weight="700" fill="#0f1e3d" text-anchor="middle">4</text>
<text x="633.48" y="370.26" font-size="8.5" fill="#64748b" text-anchor="middle">3440×2900</text>
<line x1="622.0799999999999" y1="303.15999999999997" x2="644.8800000000001" y2="303.15999999999997" stroke="#fff" stroke-width="3.5"/>
<line x1="622.0799999999999" y1="303.15999999999997" x2="644.8800000000001" y2="303.15999999999997" stroke="#b45309" stroke-width="2.5"/>
<rect x="702.6400000000001" y="303.15999999999997" width="130.72" height="110.2" fill="#e8f0ff" stroke="#1e293b" stroke-width="1.3"/>
<text x="768" y="359.26" font-size="12" font-weight="700" fill="#0f1e3d" text-anchor="middle">4</text>
<text x="768" y="370.26" font-size="8.5" fill="#64748b" text-anchor="middle">3440×2900</text>
<line x1="756.6" y1="303.15999999999997" x2="779.4" y2="303.15999999999997" stroke="#fff" stroke-width="3.5"/>
<line x1="756.6" y1="303.15999999999997" x2="779.4" y2="303.15999999999997" stroke="#b45309" stroke-width="2.5"/>
<rect x="164.56" y="417.16" width="130.72" height="110.2" fill="#e8f0ff" stroke="#1e293b" stroke-width="1.3"/>
<text x="229.92" y="473.26" font-size="12" font-weight="700" fill="#0f1e3d" text-anchor="middle">4</text>
<text x="229.92" y="484.26" font-size="8.5" fill="#64748b" text-anchor="middle">3440×2900</text>
<line x1="218.51999999999998" y1="527.36" x2="241.32" y2="527.36" stroke="#fff" stroke-width="3.5"/>
<line x1="218.51999999999998" y1="527.36" x2="241.32" y2="527.36" stroke="#b45309" stroke-width="2.5"/>
<rect x="299.08000000000004" y="417.16" width="130.72" height="110.2" fill="#e8f0ff" stroke="#1e293b" stroke-width="1.3"/>
<text x="364.44" y="473.26" font-size="12" font-weight="700" fill="#0f1e3d" text-anchor="middle">4</text>
<text x="364.44" y="484.26" font-size="8.5" fill="#64748b" text-anchor="middle">3440×2900</text>
<line x1="353.03999999999996" y1="527.36" x2="375.84" y2="527.36" stroke="#fff" stroke-width="3.5"/>
<line x1="353.03999999999996" y1="527.36" x2="375.84" y2="527.36" stroke="#b45309" stroke-width="2.5"/>
<rect x="433.6" y="417.16" width="130.72" height="110.2" fill="#e8f0ff" stroke="#1e293b" stroke-width="1.3"/>
<text x="498.96" y="473.26" font-size="12" font-weight="700" fill="#0f1e3d" text-anchor="middle">4</text>
<text x="498.96" y="484.26" font-size="8.5" fill="#64748b" text-anchor="middle">3440×2900</text>
<line x1="487.55999999999995" y1="527.36" x2="510.36" y2="527.36" stroke="#fff" stroke-width="3.5"/>
<line x1="487.55999999999995" y1="527.36" x2="510.36" y2="527.36" stroke="#b45309" stroke-width="2.5"/>
<rect x="568.12" y="417.16" width="130.72" height="110.2" fill="#e8f0ff" stroke="#1e293b" stroke-width="1.3"/>
<text x="633.48" y="473.26" font-size="12" font-weight="700" fill="#0f1e3d" text-anchor="middle">4</text>
<text x="633.48" y="484.26" font-size="8.5" fill="#64748b" text-anchor="middle">3440×2900</text>
<line x1="622.0799999999999" y1="527.36" x2="644.8800000000001" y2="527.36" stroke="#fff" stroke-width="3.5"/>
<line x1="622.0799999999999" y1="527.36" x2="644.8800000000001" y2="527.36" stroke="#b45309" stroke-width="2.5"/>
<rect x="702.6400000000001" y="417.16" width="130.72" height="110.2" fill="#e8f0ff" stroke="#1e293b" stroke-width="1.3"/>
<text x="768" y="473.26" font-size="12" font-weight="700" fill="#0f1e3d" text-anchor="middle">4</text>
<text x="768" y="484.26" font-size="8.5" fill="#64748b" text-anchor="middle">3440×2900</text>
<line x1="756.6" y1="527.36" x2="779.4" y2="527.36" stroke="#fff" stroke-width="3.5"/>
<line x1="756.6" y1="527.36" x2="779.4" y2="527.36" stroke="#b45309" stroke-width="2.5"/>
<rect x="160" y="531.1600000000001" width="676.4" height="41.800000000000004" fill="#e2e8f0"/>
<text x="498.2" y="555.0600000000001" font-size="8" fill="#475569" text-anchor="middle">복도 1,100  (양면 — 줄3·줄4)</text>
<rect x="164.56" y="576.76" width="83.60000000000001" height="136.8" fill="#dce8ff" stroke="#1e293b" stroke-width="1.3"/>
<text x="206.36" y="646.1600000000001" font-size="12" font-weight="700" fill="#0f1e3d" text-anchor="middle">2</text>
<text x="206.36" y="657.1600000000001" font-size="8.5" fill="#64748b" text-anchor="middle">2200×3600</text>
<line x1="194.96" y1="576.76" x2="217.76000000000002" y2="576.76" stroke="#fff" stroke-width="3.5"/>
<line x1="194.96" y1="576.76" x2="217.76000000000002" y2="576.76" stroke="#b45309" stroke-width="2.5"/>
<rect x="251.95999999999998" y="576.76" width="83.60000000000001" height="136.8" fill="#dce8ff" stroke="#1e293b" stroke-width="1.3"/>
<text x="293.76" y="646.1600000000001" font-size="12" font-weight="700" fill="#0f1e3d" text-anchor="middle">2</text>
<text x="293.76" y="657.1600000000001" font-size="8.5" fill="#64748b" text-anchor="middle">2200×3600</text>
<line x1="282.36" y1="576.76" x2="305.15999999999997" y2="576.76" stroke="#fff" stroke-width="3.5"/>
<line x1="282.36" y1="576.76" x2="305.15999999999997" y2="576.76" stroke="#b45309" stroke-width="2.5"/>
<rect x="339.36" y="576.76" width="83.60000000000001" height="136.8" fill="#dce8ff" stroke="#1e293b" stroke-width="1.3"/>
<text x="381.16" y="646.1600000000001" font-size="12" font-weight="700" fill="#0f1e3d" text-anchor="middle">2</text>
<text x="381.16" y="657.1600000000001" font-size="8.5" fill="#64748b" text-anchor="middle">2200×3600</text>
<line x1="369.76" y1="576.76" x2="392.56" y2="576.76" stroke="#fff" stroke-width="3.5"/>
<line x1="369.76" y1="576.76" x2="392.56" y2="576.76" stroke="#b45309" stroke-width="2.5"/>
<rect x="426.76" y="576.76" width="83.60000000000001" height="136.8" fill="#dce8ff" stroke="#1e293b" stroke-width="1.3"/>
<text x="468.55999999999995" y="646.1600000000001" font-size="12" font-weight="700" fill="#0f1e3d" text-anchor="middle">2</text>
<text x="468.55999999999995" y="657.1600000000001" font-size="8.5" fill="#64748b" text-anchor="middle">2200×3600</text>
<line x1="457.15999999999997" y1="576.76" x2="479.96" y2="576.76" stroke="#fff" stroke-width="3.5"/>
<line x1="457.15999999999997" y1="576.76" x2="479.96" y2="576.76" stroke="#b45309" stroke-width="2.5"/>
<rect x="514.1600000000001" y="576.76" width="71.82" height="66.5" fill="#ede8ff" stroke="#1e293b" stroke-width="1.3"/>
<text x="550.07" y="611.01" font-size="12" font-weight="700" fill="#0f1e3d" text-anchor="middle">1</text>
<text x="550.07" y="622.01" font-size="8.5" fill="#64748b" text-anchor="middle">1890×1750</text>
<line x1="538.6700000000001" y1="576.76" x2="561.47" y2="576.76" stroke="#fff" stroke-width="3.5"/>
<line x1="538.6700000000001" y1="576.76" x2="561.47" y2="576.76" stroke="#b45309" stroke-width="2.5"/>
<rect x="514.1600000000001" y="647.06" width="71.82" height="66.5" fill="#ede8ff" stroke="#1e293b" stroke-width="1.3"/>
<text x="550.07" y="681.31" font-size="12" font-weight="700" fill="#0f1e3d" text-anchor="middle">1</text>
<text x="550.07" y="692.31" font-size="8.5" fill="#64748b" text-anchor="middle">1890×1750</text>
<line x1="538.6700000000001" y1="713.56" x2="561.47" y2="713.56" stroke="#fff" stroke-width="3.5"/>
<line x1="538.6700000000001" y1="713.56" x2="561.47" y2="713.56" stroke="#b45309" stroke-width="2.5"/>
<rect x="589.78" y="576.76" width="71.82" height="66.5" fill="#ede8ff" stroke="#1e293b" stroke-width="1.3"/>
<text x="625.69" y="611.01" font-size="12" font-weight="700" fill="#0f1e3d" text-anchor="middle">1</text>
<text x="625.69" y="622.01" font-size="8.5" fill="#64748b" text-anchor="middle">1890×1750</text>
<line x1="614.29" y1="576.76" x2="637.09" y2="576.76" stroke="#fff" stroke-width="3.5"/>
<line x1="614.29" y1="576.76" x2="637.09" y2="576.76" stroke="#b45309" stroke-width="2.5"/>
<rect x="589.78" y="647.06" width="71.82" height="66.5" fill="#ede8ff" stroke="#1e293b" stroke-width="1.3"/>
<text x="625.69" y="681.31" font-size="12" font-weight="700" fill="#0f1e3d" text-anchor="middle">1</text>
<text x="625.69" y="692.31" font-size="8.5" fill="#64748b" text-anchor="middle">1890×1750</text>
<line x1="614.29" y1="713.56" x2="637.09" y2="713.56" stroke="#fff" stroke-width="3.5"/>
<line x1="614.29" y1="713.56" x2="637.09" y2="713.56" stroke="#b45309" stroke-width="2.5"/>
<rect x="665.4000000000001" y="576.76" width="71.82" height="66.5" fill="#ede8ff" stroke="#1e293b" stroke-width="1.3"/>
<text x="701.3100000000001" y="611.01" font-size="12" font-weight="700" fill="#0f1e3d" text-anchor="middle">1</text>
<text x="701.3100000000001" y="622.01" font-size="8.5" fill="#64748b" text-anchor="middle">1890×1750</text>
<line x1="689.91" y1="576.76" x2="712.71" y2="576.76" stroke="#fff" stroke-width="3.5"/>
<line x1="689.91" y1="576.76" x2="712.71" y2="576.76" stroke="#b45309" stroke-width="2.5"/>
<rect x="665.4000000000001" y="647.06" width="71.82" height="66.5" fill="#ede8ff" stroke="#1e293b" stroke-width="1.3"/>
<text x="701.3100000000001" y="681.31" font-size="12" font-weight="700" fill="#0f1e3d" text-anchor="middle">1</text>
<text x="701.3100000000001" y="692.31" font-size="8.5" fill="#64748b" text-anchor="middle">1890×1750</text>
<line x1="689.91" y1="713.56" x2="712.71" y2="713.56" stroke="#fff" stroke-width="3.5"/>
<line x1="689.91" y1="713.56" x2="712.71" y2="713.56" stroke="#b45309" stroke-width="2.5"/>
<rect x="741.02" y="576.76" width="71.82" height="66.5" fill="#ede8ff" stroke="#1e293b" stroke-width="1.3"/>
<text x="776.93" y="611.01" font-size="12" font-weight="700" fill="#0f1e3d" text-anchor="middle">1</text>
<text x="776.93" y="622.01" font-size="8.5" fill="#64748b" text-anchor="middle">1890×1750</text>
<line x1="765.53" y1="576.76" x2="788.33" y2="576.76" stroke="#fff" stroke-width="3.5"/>
<line x1="765.53" y1="576.76" x2="788.33" y2="576.76" stroke="#b45309" stroke-width="2.5"/>
<rect x="741.02" y="647.06" width="71.82" height="66.5" fill="#ede8ff" stroke="#1e293b" stroke-width="1.3"/>
<text x="776.93" y="681.31" font-size="12" font-weight="700" fill="#0f1e3d" text-anchor="middle">1</text>
<text x="776.93" y="692.31" font-size="8.5" fill="#64748b" text-anchor="middle">1890×1750</text>
<line x1="765.53" y1="713.56" x2="788.33" y2="713.56" stroke="#fff" stroke-width="3.5"/>
<line x1="765.53" y1="713.56" x2="788.33" y2="713.56" stroke="#b45309" stroke-width="2.5"/>
<rect x="160" y="717.36" width="676.4" height="32.3" fill="#e2e8f0"/>
<text x="498.2" y="736.5100000000001" font-size="8" fill="#475569" text-anchor="middle">복도 1,100 (공용 진입)</text>
<rect x="161.9" y="749.66" width="129.2" height="67.64" fill="#eef3fb" stroke="#1e293b" stroke-width="1.3"/>
<text x="226.5" y="783.48" font-size="12" font-weight="700" fill="#0f1e3d" text-anchor="middle">회의실 6인</text>
<text x="226.5" y="795.48" font-size="8.5" fill="#64748b" text-anchor="middle">3400×1780</text>
<rect x="294.9" y="749.66" width="110.2" height="67.64" fill="#eef3fb" stroke="#1e293b" stroke-width="1.3"/>
<text x="350" y="783.48" font-size="12" font-weight="700" fill="#0f1e3d" text-anchor="middle">회의실 4인</text>
<text x="350" y="795.48" font-size="8.5" fill="#64748b" text-anchor="middle">2900×1780</text>
<rect x="408.9" y="749.66" width="68.4" height="67.64" fill="#f1f5f9" stroke="#1e293b" stroke-width="1.3"/>
<text x="443.1" y="783.48" font-size="12" font-weight="700" fill="#0f1e3d" text-anchor="middle">OA</text>
<text x="443.1" y="795.48" font-size="8.5" fill="#64748b" text-anchor="middle">1800×1780</text>
<rect x="481.09999999999997" y="749.66" width="57" height="67.64" fill="#fff7ed" stroke="#1e293b" stroke-width="1.3"/>
<text x="509.59999999999997" y="783.48" font-size="12" font-weight="700" fill="#0f1e3d" text-anchor="middle">우편·소포</text>
<text x="509.59999999999997" y="795.48" font-size="8.5" fill="#64748b" text-anchor="middle">1500×1780</text>
<rect x="541.9000000000001" y="749.66" width="57" height="67.64" fill="#f1f5f4" stroke="#1e293b" stroke-width="1.3"/>
<text x="570.4000000000001" y="783.48" font-size="12" font-weight="700" fill="#0f1e3d" text-anchor="middle">창고</text>
<text x="570.4000000000001" y="795.48" font-size="8.5" fill="#64748b" text-anchor="middle">1500×1780</text>
<rect x="602.7" y="749.66" width="233.70000000000002" height="67.64" fill="#f0fdf4" stroke="#1e293b" stroke-width="1.3"/>
<text x="719.5500000000001" y="783.48" font-size="12" font-weight="700" fill="#0f1e3d" text-anchor="middle">라운지 + 탕비 + 리셉션 (입구 동선)</text>
<text x="719.5500000000001" y="795.48" font-size="8.5" fill="#64748b" text-anchor="middle">6150×1780</text>
<text x="513.4000000000001" y="859.1999999999999" font-size="13" font-weight="800" fill="#15803d" text-anchor="middle">독립실 27호실 / 76석 (4인 15·2인 4·1인 8) + 회의실 6/4인 + OA + 우편·소포 + 창고 + 라운지·탕비·리셉션</text>
<g id="door-furniture-layer">
<!-- Doors face corridors; desks are placed clear of door swing zones. -->
<g class="room-fitout" data-room="1" data-type="4" data-door="bottom">
  <rect x="204.29" y="171.56" width="26" height="14" rx="1.5" fill="#94a3b8" stroke="#475569" stroke-width="0.8"/>
  <circle cx="217.29" cy="190.56" r="3.2" fill="#cbd5e1" stroke="#64748b" stroke-width="0.6"/>
  <rect x="238.29" y="171.56" width="26" height="14" rx="1.5" fill="#94a3b8" stroke="#475569" stroke-width="0.8"/>
  <circle cx="251.29" cy="190.56" r="3.2" fill="#cbd5e1" stroke="#64748b" stroke-width="0.6"/>
  <rect x="204.29" y="192.56" width="26" height="14" rx="1.5" fill="#94a3b8" stroke="#475569" stroke-width="0.8"/>
  <circle cx="217.29" cy="211.56" r="3.2" fill="#cbd5e1" stroke="#64748b" stroke-width="0.6"/>
  <rect x="238.29" y="192.56" width="26" height="14" rx="1.5" fill="#94a3b8" stroke="#475569" stroke-width="0.8"/>
  <circle cx="251.29" cy="211.56" r="3.2" fill="#cbd5e1" stroke="#64748b" stroke-width="0.6"/>
  <line x1="222.89" y1="253.76" x2="245.69" y2="253.76" stroke="#7c2d12" stroke-width="4.2" stroke-linecap="round"/>
  <line x1="222.89" y1="253.76" x2="222.89" y2="234.76" stroke="#7c2d12" stroke-width="1.5"/>
  <path d="M 222.89 234.76 A 19 19 0 0 0 241.89 253.76" fill="none" stroke="#7c2d12" stroke-width="1.1" opacity="0.8"/>
</g>
<g class="room-fitout" data-room="2" data-type="4" data-door="bottom">
  <rect x="347.55" y="171.56" width="26" height="14" rx="1.5" fill="#94a3b8" stroke="#475569" stroke-width="0.8"/>
  <circle cx="360.55" cy="190.56" r="3.2" fill="#cbd5e1" stroke="#64748b" stroke-width="0.6"/>
  <rect x="381.55" y="171.56" width="26" height="14" rx="1.5" fill="#94a3b8" stroke="#475569" stroke-width="0.8"/>
  <circle cx="394.55" cy="190.56" r="3.2" fill="#cbd5e1" stroke="#64748b" stroke-width="0.6"/>
  <rect x="347.55" y="192.56" width="26" height="14" rx="1.5" fill="#94a3b8" stroke="#475569" stroke-width="0.8"/>
  <circle cx="360.55" cy="211.56" r="3.2" fill="#cbd5e1" stroke="#64748b" stroke-width="0.6"/>
  <rect x="381.55" y="192.56" width="26" height="14" rx="1.5" fill="#94a3b8" stroke="#475569" stroke-width="0.8"/>
  <circle cx="394.55" cy="211.56" r="3.2" fill="#cbd5e1" stroke="#64748b" stroke-width="0.6"/>
  <line x1="366.15" y1="253.76" x2="388.95" y2="253.76" stroke="#7c2d12" stroke-width="4.2" stroke-linecap="round"/>
  <line x1="366.15" y1="253.76" x2="366.15" y2="234.76" stroke="#7c2d12" stroke-width="1.5"/>
  <path d="M 366.15 234.76 A 19 19 0 0 0 385.15 253.76" fill="none" stroke="#7c2d12" stroke-width="1.1" opacity="0.8"/>
</g>
<g class="room-fitout" data-room="3" data-type="4" data-door="bottom">
  <rect x="490.81" y="171.56" width="26" height="14" rx="1.5" fill="#94a3b8" stroke="#475569" stroke-width="0.8"/>
  <circle cx="503.81" cy="190.56" r="3.2" fill="#cbd5e1" stroke="#64748b" stroke-width="0.6"/>
  <rect x="524.81" y="171.56" width="26" height="14" rx="1.5" fill="#94a3b8" stroke="#475569" stroke-width="0.8"/>
  <circle cx="537.81" cy="190.56" r="3.2" fill="#cbd5e1" stroke="#64748b" stroke-width="0.6"/>
  <rect x="490.81" y="192.56" width="26" height="14" rx="1.5" fill="#94a3b8" stroke="#475569" stroke-width="0.8"/>
  <circle cx="503.81" cy="211.56" r="3.2" fill="#cbd5e1" stroke="#64748b" stroke-width="0.6"/>
  <rect x="524.81" y="192.56" width="26" height="14" rx="1.5" fill="#94a3b8" stroke="#475569" stroke-width="0.8"/>
  <circle cx="537.81" cy="211.56" r="3.2" fill="#cbd5e1" stroke="#64748b" stroke-width="0.6"/>
  <line x1="509.41" y1="253.76" x2="532.21" y2="253.76" stroke="#7c2d12" stroke-width="4.2" stroke-linecap="round"/>
  <line x1="509.41" y1="253.76" x2="509.41" y2="234.76" stroke="#7c2d12" stroke-width="1.5"/>
  <path d="M 509.41 234.76 A 19 19 0 0 0 528.41 253.76" fill="none" stroke="#7c2d12" stroke-width="1.1" opacity="0.8"/>
</g>
<g class="room-fitout" data-room="4" data-type="4" data-door="bottom">
  <rect x="634.07" y="171.56" width="26" height="14" rx="1.5" fill="#94a3b8" stroke="#475569" stroke-width="0.8"/>
  <circle cx="647.07" cy="190.56" r="3.2" fill="#cbd5e1" stroke="#64748b" stroke-width="0.6"/>
  <rect x="668.07" y="171.56" width="26" height="14" rx="1.5" fill="#94a3b8" stroke="#475569" stroke-width="0.8"/>
  <circle cx="681.07" cy="190.56" r="3.2" fill="#cbd5e1" stroke="#64748b" stroke-width="0.6"/>
  <rect x="634.07" y="192.56" width="26" height="14" rx="1.5" fill="#94a3b8" stroke="#475569" stroke-width="0.8"/>
  <circle cx="647.07" cy="211.56" r="3.2" fill="#cbd5e1" stroke="#64748b" stroke-width="0.6"/>
  <rect x="668.07" y="192.56" width="26" height="14" rx="1.5" fill="#94a3b8" stroke="#475569" stroke-width="0.8"/>
  <circle cx="681.07" cy="211.56" r="3.2" fill="#cbd5e1" stroke="#64748b" stroke-width="0.6"/>
  <line x1="652.67" y1="253.76" x2="675.47" y2="253.76" stroke="#7c2d12" stroke-width="4.2" stroke-linecap="round"/>
  <line x1="652.67" y1="253.76" x2="652.67" y2="234.76" stroke="#7c2d12" stroke-width="1.5"/>
  <path d="M 652.67 234.76 A 19 19 0 0 0 671.67 253.76" fill="none" stroke="#7c2d12" stroke-width="1.1" opacity="0.8"/>
</g>
<g class="room-fitout" data-room="5" data-type="4" data-door="bottom">
  <rect x="777.33" y="171.56" width="26" height="14" rx="1.5" fill="#94a3b8" stroke="#475569" stroke-width="0.8"/>
  <circle cx="790.33" cy="190.56" r="3.2" fill="#cbd5e1" stroke="#64748b" stroke-width="0.6"/>
  <rect x="811.33" y="171.56" width="26" height="14" rx="1.5" fill="#94a3b8" stroke="#475569" stroke-width="0.8"/>
  <circle cx="824.33" cy="190.56" r="3.2" fill="#cbd5e1" stroke="#64748b" stroke-width="0.6"/>
  <rect x="777.33" y="192.56" width="26" height="14" rx="1.5" fill="#94a3b8" stroke="#475569" stroke-width="0.8"/>
  <circle cx="790.33" cy="211.56" r="3.2" fill="#cbd5e1" stroke="#64748b" stroke-width="0.6"/>
  <rect x="811.33" y="192.56" width="26" height="14" rx="1.5" fill="#94a3b8" stroke="#475569" stroke-width="0.8"/>
  <circle cx="824.33" cy="211.56" r="3.2" fill="#cbd5e1" stroke="#64748b" stroke-width="0.6"/>
  <line x1="795.93" y1="253.76" x2="818.73" y2="253.76" stroke="#7c2d12" stroke-width="4.2" stroke-linecap="round"/>
  <line x1="795.93" y1="253.76" x2="795.93" y2="234.76" stroke="#7c2d12" stroke-width="1.5"/>
  <path d="M 795.93 234.76 A 19 19 0 0 0 814.93 253.76" fill="none" stroke="#7c2d12" stroke-width="1.1" opacity="0.8"/>
</g>
<g class="room-fitout" data-room="6" data-type="4" data-door="top">
  <rect x="199.92" y="367.36" width="26" height="14" rx="1.5" fill="#94a3b8" stroke="#475569" stroke-width="0.8"/>
  <circle cx="212.92" cy="362.36" r="3.2" fill="#cbd5e1" stroke="#64748b" stroke-width="0.6"/>
  <rect x="233.92" y="367.36" width="26" height="14" rx="1.5" fill="#94a3b8" stroke="#475569" stroke-width="0.8"/>
  <circle cx="246.92" cy="362.36" r="3.2" fill="#cbd5e1" stroke="#64748b" stroke-width="0.6"/>
  <rect x="199.92" y="388.36" width="26" height="14" rx="1.5" fill="#94a3b8" stroke="#475569" stroke-width="0.8"/>
  <circle cx="212.92" cy="383.36" r="3.2" fill="#cbd5e1" stroke="#64748b" stroke-width="0.6"/>
  <rect x="233.92" y="388.36" width="26" height="14" rx="1.5" fill="#94a3b8" stroke="#475569" stroke-width="0.8"/>
  <circle cx="246.92" cy="383.36" r="3.2" fill="#cbd5e1" stroke="#64748b" stroke-width="0.6"/>
  <line x1="218.52" y1="303.16" x2="241.32" y2="303.16" stroke="#7c2d12" stroke-width="4.2" stroke-linecap="round"/>
  <line x1="218.52" y1="303.16" x2="218.52" y2="322.16" stroke="#7c2d12" stroke-width="1.5"/>
  <path d="M 218.52 322.16 A 19 19 0 0 1 237.52 303.16" fill="none" stroke="#7c2d12" stroke-width="1.1" opacity="0.8"/>
</g>
<g class="room-fitout" data-room="7" data-type="4" data-door="top">
  <rect x="334.44" y="367.36" width="26" height="14" rx="1.5" fill="#94a3b8" stroke="#475569" stroke-width="0.8"/>
  <circle cx="347.44" cy="362.36" r="3.2" fill="#cbd5e1" stroke="#64748b" stroke-width="0.6"/>
  <rect x="368.44" y="367.36" width="26" height="14" rx="1.5" fill="#94a3b8" stroke="#475569" stroke-width="0.8"/>
  <circle cx="381.44" cy="362.36" r="3.2" fill="#cbd5e1" stroke="#64748b" stroke-width="0.6"/>
  <rect x="334.44" y="388.36" width="26" height="14" rx="1.5" fill="#94a3b8" stroke="#475569" stroke-width="0.8"/>
  <circle cx="347.44" cy="383.36" r="3.2" fill="#cbd5e1" stroke="#64748b" stroke-width="0.6"/>
  <rect x="368.44" y="388.36" width="26" height="14" rx="1.5" fill="#94a3b8" stroke="#475569" stroke-width="0.8"/>
  <circle cx="381.44" cy="383.36" r="3.2" fill="#cbd5e1" stroke="#64748b" stroke-width="0.6"/>
  <line x1="353.04" y1="303.16" x2="375.84" y2="303.16" stroke="#7c2d12" stroke-width="4.2" stroke-linecap="round"/>
  <line x1="353.04" y1="303.16" x2="353.04" y2="322.16" stroke="#7c2d12" stroke-width="1.5"/>
  <path d="M 353.04 322.16 A 19 19 0 0 1 372.04 303.16" fill="none" stroke="#7c2d12" stroke-width="1.1" opacity="0.8"/>
</g>
<g class="room-fitout" data-room="8" data-type="4" data-door="top">
  <rect x="468.96" y="367.36" width="26" height="14" rx="1.5" fill="#94a3b8" stroke="#475569" stroke-width="0.8"/>
  <circle cx="481.96" cy="362.36" r="3.2" fill="#cbd5e1" stroke="#64748b" stroke-width="0.6"/>
  <rect x="502.96" y="367.36" width="26" height="14" rx="1.5" fill="#94a3b8" stroke="#475569" stroke-width="0.8"/>
  <circle cx="515.96" cy="362.36" r="3.2" fill="#cbd5e1" stroke="#64748b" stroke-width="0.6"/>
  <rect x="468.96" y="388.36" width="26" height="14" rx="1.5" fill="#94a3b8" stroke="#475569" stroke-width="0.8"/>
  <circle cx="481.96" cy="383.36" r="3.2" fill="#cbd5e1" stroke="#64748b" stroke-width="0.6"/>
  <rect x="502.96" y="388.36" width="26" height="14" rx="1.5" fill="#94a3b8" stroke="#475569" stroke-width="0.8"/>
  <circle cx="515.96" cy="383.36" r="3.2" fill="#cbd5e1" stroke="#64748b" stroke-width="0.6"/>
  <line x1="487.56" y1="303.16" x2="510.36" y2="303.16" stroke="#7c2d12" stroke-width="4.2" stroke-linecap="round"/>
  <line x1="487.56" y1="303.16" x2="487.56" y2="322.16" stroke="#7c2d12" stroke-width="1.5"/>
  <path d="M 487.56 322.16 A 19 19 0 0 1 506.56 303.16" fill="none" stroke="#7c2d12" stroke-width="1.1" opacity="0.8"/>
</g>
<g class="room-fitout" data-room="9" data-type="4" data-door="top">
  <rect x="603.48" y="367.36" width="26" height="14" rx="1.5" fill="#94a3b8" stroke="#475569" stroke-width="0.8"/>
  <circle cx="616.48" cy="362.36" r="3.2" fill="#cbd5e1" stroke="#64748b" stroke-width="0.6"/>
  <rect x="637.48" y="367.36" width="26" height="14" rx="1.5" fill="#94a3b8" stroke="#475569" stroke-width="0.8"/>
  <circle cx="650.48" cy="362.36" r="3.2" fill="#cbd5e1" stroke="#64748b" stroke-width="0.6"/>
  <rect x="603.48" y="388.36" width="26" height="14" rx="1.5" fill="#94a3b8" stroke="#475569" stroke-width="0.8"/>
  <circle cx="616.48" cy="383.36" r="3.2" fill="#cbd5e1" stroke="#64748b" stroke-width="0.6"/>
  <rect x="637.48" y="388.36" width="26" height="14" rx="1.5" fill="#94a3b8" stroke="#475569" stroke-width="0.8"/>
  <circle cx="650.48" cy="383.36" r="3.2" fill="#cbd5e1" stroke="#64748b" stroke-width="0.6"/>
  <line x1="622.08" y1="303.16" x2="644.88" y2="303.16" stroke="#7c2d12" stroke-width="4.2" stroke-linecap="round"/>
  <line x1="622.08" y1="303.16" x2="622.08" y2="322.16" stroke="#7c2d12" stroke-width="1.5"/>
  <path d="M 622.08 322.16 A 19 19 0 0 1 641.08 303.16" fill="none" stroke="#7c2d12" stroke-width="1.1" opacity="0.8"/>
</g>
<g class="room-fitout" data-room="10" data-type="4" data-door="top">
  <rect x="738" y="367.36" width="26" height="14" rx="1.5" fill="#94a3b8" stroke="#475569" stroke-width="0.8"/>
  <circle cx="751" cy="362.36" r="3.2" fill="#cbd5e1" stroke="#64748b" stroke-width="0.6"/>
  <rect x="772" y="367.36" width="26" height="14" rx="1.5" fill="#94a3b8" stroke="#475569" stroke-width="0.8"/>
  <circle cx="785" cy="362.36" r="3.2" fill="#cbd5e1" stroke="#64748b" stroke-width="0.6"/>
  <rect x="738" y="388.36" width="26" height="14" rx="1.5" fill="#94a3b8" stroke="#475569" stroke-width="0.8"/>
  <circle cx="751" cy="383.36" r="3.2" fill="#cbd5e1" stroke="#64748b" stroke-width="0.6"/>
  <rect x="772" y="388.36" width="26" height="14" rx="1.5" fill="#94a3b8" stroke="#475569" stroke-width="0.8"/>
  <circle cx="785" cy="383.36" r="3.2" fill="#cbd5e1" stroke="#64748b" stroke-width="0.6"/>
  <line x1="756.6" y1="303.16" x2="779.4" y2="303.16" stroke="#7c2d12" stroke-width="4.2" stroke-linecap="round"/>
  <line x1="756.6" y1="303.16" x2="756.6" y2="322.16" stroke="#7c2d12" stroke-width="1.5"/>
  <path d="M 756.6 322.16 A 19 19 0 0 1 775.6 303.16" fill="none" stroke="#7c2d12" stroke-width="1.1" opacity="0.8"/>
</g>
<g class="room-fitout" data-room="11" data-type="4" data-door="bottom">
  <rect x="199.92" y="426.16" width="26" height="14" rx="1.5" fill="#94a3b8" stroke="#475569" stroke-width="0.8"/>
  <circle cx="212.92" cy="445.16" r="3.2" fill="#cbd5e1" stroke="#64748b" stroke-width="0.6"/>
  <rect x="233.92" y="426.16" width="26" height="14" rx="1.5" fill="#94a3b8" stroke="#475569" stroke-width="0.8"/>
  <circle cx="246.92" cy="445.16" r="3.2" fill="#cbd5e1" stroke="#64748b" stroke-width="0.6"/>
  <rect x="199.92" y="447.16" width="26" height="14" rx="1.5" fill="#94a3b8" stroke="#475569" stroke-width="0.8"/>
  <circle cx="212.92" cy="466.16" r="3.2" fill="#cbd5e1" stroke="#64748b" stroke-width="0.6"/>
  <rect x="233.92" y="447.16" width="26" height="14" rx="1.5" fill="#94a3b8" stroke="#475569" stroke-width="0.8"/>
  <circle cx="246.92" cy="466.16" r="3.2" fill="#cbd5e1" stroke="#64748b" stroke-width="0.6"/>
  <line x1="218.52" y1="527.36" x2="241.32" y2="527.36" stroke="#7c2d12" stroke-width="4.2" stroke-linecap="round"/>
  <line x1="218.52" y1="527.36" x2="218.52" y2="508.36" stroke="#7c2d12" stroke-width="1.5"/>
  <path d="M 218.52 508.36 A 19 19 0 0 0 237.52 527.36" fill="none" stroke="#7c2d12" stroke-width="1.1" opacity="0.8"/>
</g>
<g class="room-fitout" data-room="12" data-type="4" data-door="bottom">
  <rect x="334.44" y="426.16" width="26" height="14" rx="1.5" fill="#94a3b8" stroke="#475569" stroke-width="0.8"/>
  <circle cx="347.44" cy="445.16" r="3.2" fill="#cbd5e1" stroke="#64748b" stroke-width="0.6"/>
  <rect x="368.44" y="426.16" width="26" height="14" rx="1.5" fill="#94a3b8" stroke="#475569" stroke-width="0.8"/>
  <circle cx="381.44" cy="445.16" r="3.2" fill="#cbd5e1" stroke="#64748b" stroke-width="0.6"/>
  <rect x="334.44" y="447.16" width="26" height="14" rx="1.5" fill="#94a3b8" stroke="#475569" stroke-width="0.8"/>
  <circle cx="347.44" cy="466.16" r="3.2" fill="#cbd5e1" stroke="#64748b" stroke-width="0.6"/>
  <rect x="368.44" y="447.16" width="26" height="14" rx="1.5" fill="#94a3b8" stroke="#475569" stroke-width="0.8"/>
  <circle cx="381.44" cy="466.16" r="3.2" fill="#cbd5e1" stroke="#64748b" stroke-width="0.6"/>
  <line x1="353.04" y1="527.36" x2="375.84" y2="527.36" stroke="#7c2d12" stroke-width="4.2" stroke-linecap="round"/>
  <line x1="353.04" y1="527.36" x2="353.04" y2="508.36" stroke="#7c2d12" stroke-width="1.5"/>
  <path d="M 353.04 508.36 A 19 19 0 0 0 372.04 527.36" fill="none" stroke="#7c2d12" stroke-width="1.1" opacity="0.8"/>
</g>
<g class="room-fitout" data-room="13" data-type="4" data-door="bottom">
  <rect x="468.96" y="426.16" width="26" height="14" rx="1.5" fill="#94a3b8" stroke="#475569" stroke-width="0.8"/>
  <circle cx="481.96" cy="445.16" r="3.2" fill="#cbd5e1" stroke="#64748b" stroke-width="0.6"/>
  <rect x="502.96" y="426.16" width="26" height="14" rx="1.5" fill="#94a3b8" stroke="#475569" stroke-width="0.8"/>
  <circle cx="515.96" cy="445.16" r="3.2" fill="#cbd5e1" stroke="#64748b" stroke-width="0.6"/>
  <rect x="468.96" y="447.16" width="26" height="14" rx="1.5" fill="#94a3b8" stroke="#475569" stroke-width="0.8"/>
  <circle cx="481.96" cy="466.16" r="3.2" fill="#cbd5e1" stroke="#64748b" stroke-width="0.6"/>
  <rect x="502.96" y="447.16" width="26" height="14" rx="1.5" fill="#94a3b8" stroke="#475569" stroke-width="0.8"/>
  <circle cx="515.96" cy="466.16" r="3.2" fill="#cbd5e1" stroke="#64748b" stroke-width="0.6"/>
  <line x1="487.56" y1="527.36" x2="510.36" y2="527.36" stroke="#7c2d12" stroke-width="4.2" stroke-linecap="round"/>
  <line x1="487.56" y1="527.36" x2="487.56" y2="508.36" stroke="#7c2d12" stroke-width="1.5"/>
  <path d="M 487.56 508.36 A 19 19 0 0 0 506.56 527.36" fill="none" stroke="#7c2d12" stroke-width="1.1" opacity="0.8"/>
</g>
<g class="room-fitout" data-room="14" data-type="4" data-door="bottom">
  <rect x="603.48" y="426.16" width="26" height="14" rx="1.5" fill="#94a3b8" stroke="#475569" stroke-width="0.8"/>
  <circle cx="616.48" cy="445.16" r="3.2" fill="#cbd5e1" stroke="#64748b" stroke-width="0.6"/>
  <rect x="637.48" y="426.16" width="26" height="14" rx="1.5" fill="#94a3b8" stroke="#475569" stroke-width="0.8"/>
  <circle cx="650.48" cy="445.16" r="3.2" fill="#cbd5e1" stroke="#64748b" stroke-width="0.6"/>
  <rect x="603.48" y="447.16" width="26" height="14" rx="1.5" fill="#94a3b8" stroke="#475569" stroke-width="0.8"/>
  <circle cx="616.48" cy="466.16" r="3.2" fill="#cbd5e1" stroke="#64748b" stroke-width="0.6"/>
  <rect x="637.48" y="447.16" width="26" height="14" rx="1.5" fill="#94a3b8" stroke="#475569" stroke-width="0.8"/>
  <circle cx="650.48" cy="466.16" r="3.2" fill="#cbd5e1" stroke="#64748b" stroke-width="0.6"/>
  <line x1="622.08" y1="527.36" x2="644.88" y2="527.36" stroke="#7c2d12" stroke-width="4.2" stroke-linecap="round"/>
  <line x1="622.08" y1="527.36" x2="622.08" y2="508.36" stroke="#7c2d12" stroke-width="1.5"/>
  <path d="M 622.08 508.36 A 19 19 0 0 0 641.08 527.36" fill="none" stroke="#7c2d12" stroke-width="1.1" opacity="0.8"/>
</g>
<g class="room-fitout" data-room="15" data-type="4" data-door="bottom">
  <rect x="738" y="426.16" width="26" height="14" rx="1.5" fill="#94a3b8" stroke="#475569" stroke-width="0.8"/>
  <circle cx="751" cy="445.16" r="3.2" fill="#cbd5e1" stroke="#64748b" stroke-width="0.6"/>
  <rect x="772" y="426.16" width="26" height="14" rx="1.5" fill="#94a3b8" stroke="#475569" stroke-width="0.8"/>
  <circle cx="785" cy="445.16" r="3.2" fill="#cbd5e1" stroke="#64748b" stroke-width="0.6"/>
  <rect x="738" y="447.16" width="26" height="14" rx="1.5" fill="#94a3b8" stroke="#475569" stroke-width="0.8"/>
  <circle cx="751" cy="466.16" r="3.2" fill="#cbd5e1" stroke="#64748b" stroke-width="0.6"/>
  <rect x="772" y="447.16" width="26" height="14" rx="1.5" fill="#94a3b8" stroke="#475569" stroke-width="0.8"/>
  <circle cx="785" cy="466.16" r="3.2" fill="#cbd5e1" stroke="#64748b" stroke-width="0.6"/>
  <line x1="756.6" y1="527.36" x2="779.4" y2="527.36" stroke="#7c2d12" stroke-width="4.2" stroke-linecap="round"/>
  <line x1="756.6" y1="527.36" x2="756.6" y2="508.36" stroke="#7c2d12" stroke-width="1.5"/>
  <path d="M 756.6 508.36 A 19 19 0 0 0 775.6 527.36" fill="none" stroke="#7c2d12" stroke-width="1.1" opacity="0.8"/>
</g>
<g class="room-fitout" data-room="16" data-type="2" data-door="top">
  <rect x="173.36" y="684.06" width="28" height="15" rx="1.5" fill="#94a3b8" stroke="#475569" stroke-width="0.8"/>
  <circle cx="187.36" cy="679.06" r="3.2" fill="#cbd5e1" stroke="#64748b" stroke-width="0.6"/>
  <rect x="211.36" y="684.06" width="28" height="15" rx="1.5" fill="#94a3b8" stroke="#475569" stroke-width="0.8"/>
  <circle cx="225.36" cy="679.06" r="3.2" fill="#cbd5e1" stroke="#64748b" stroke-width="0.6"/>
  <line x1="194.96" y1="576.76" x2="217.76" y2="576.76" stroke="#7c2d12" stroke-width="4.2" stroke-linecap="round"/>
  <line x1="194.96" y1="576.76" x2="194.96" y2="595.76" stroke="#7c2d12" stroke-width="1.5"/>
  <path d="M 194.96 595.76 A 19 19 0 0 1 213.96 576.76" fill="none" stroke="#7c2d12" stroke-width="1.1" opacity="0.8"/>
</g>
<g class="room-fitout" data-room="17" data-type="2" data-door="top">
  <rect x="260.76" y="684.06" width="28" height="15" rx="1.5" fill="#94a3b8" stroke="#475569" stroke-width="0.8"/>
  <circle cx="274.76" cy="679.06" r="3.2" fill="#cbd5e1" stroke="#64748b" stroke-width="0.6"/>
  <rect x="298.76" y="684.06" width="28" height="15" rx="1.5" fill="#94a3b8" stroke="#475569" stroke-width="0.8"/>
  <circle cx="312.76" cy="679.06" r="3.2" fill="#cbd5e1" stroke="#64748b" stroke-width="0.6"/>
  <line x1="282.36" y1="576.76" x2="305.16" y2="576.76" stroke="#7c2d12" stroke-width="4.2" stroke-linecap="round"/>
  <line x1="282.36" y1="576.76" x2="282.36" y2="595.76" stroke="#7c2d12" stroke-width="1.5"/>
  <path d="M 282.36 595.76 A 19 19 0 0 1 301.36 576.76" fill="none" stroke="#7c2d12" stroke-width="1.1" opacity="0.8"/>
</g>
<g class="room-fitout" data-room="18" data-type="2" data-door="top">
  <rect x="348.16" y="684.06" width="28" height="15" rx="1.5" fill="#94a3b8" stroke="#475569" stroke-width="0.8"/>
  <circle cx="362.16" cy="679.06" r="3.2" fill="#cbd5e1" stroke="#64748b" stroke-width="0.6"/>
  <rect x="386.16" y="684.06" width="28" height="15" rx="1.5" fill="#94a3b8" stroke="#475569" stroke-width="0.8"/>
  <circle cx="400.16" cy="679.06" r="3.2" fill="#cbd5e1" stroke="#64748b" stroke-width="0.6"/>
  <line x1="369.76" y1="576.76" x2="392.56" y2="576.76" stroke="#7c2d12" stroke-width="4.2" stroke-linecap="round"/>
  <line x1="369.76" y1="576.76" x2="369.76" y2="595.76" stroke="#7c2d12" stroke-width="1.5"/>
  <path d="M 369.76 595.76 A 19 19 0 0 1 388.76 576.76" fill="none" stroke="#7c2d12" stroke-width="1.1" opacity="0.8"/>
</g>
<g class="room-fitout" data-room="19" data-type="2" data-door="top">
  <rect x="435.56" y="684.06" width="28" height="15" rx="1.5" fill="#94a3b8" stroke="#475569" stroke-width="0.8"/>
  <circle cx="449.56" cy="679.06" r="3.2" fill="#cbd5e1" stroke="#64748b" stroke-width="0.6"/>
  <rect x="473.56" y="684.06" width="28" height="15" rx="1.5" fill="#94a3b8" stroke="#475569" stroke-width="0.8"/>
  <circle cx="487.56" cy="679.06" r="3.2" fill="#cbd5e1" stroke="#64748b" stroke-width="0.6"/>
  <line x1="457.16" y1="576.76" x2="479.96" y2="576.76" stroke="#7c2d12" stroke-width="4.2" stroke-linecap="round"/>
  <line x1="457.16" y1="576.76" x2="457.16" y2="595.76" stroke="#7c2d12" stroke-width="1.5"/>
  <path d="M 457.16 595.76 A 19 19 0 0 1 476.16 576.76" fill="none" stroke="#7c2d12" stroke-width="1.1" opacity="0.8"/>
</g>
<g class="room-fitout" data-room="20" data-type="1" data-door="top">
  <rect x="531.07" y="622.76" width="38" height="13" rx="1.5" fill="#94a3b8" stroke="#475569" stroke-width="0.8"/>
  <circle cx="550.07" cy="617.76" r="3.2" fill="#cbd5e1" stroke="#64748b" stroke-width="0.6"/>
  <line x1="538.67" y1="576.76" x2="561.47" y2="576.76" stroke="#7c2d12" stroke-width="4.2" stroke-linecap="round"/>
  <line x1="538.67" y1="576.76" x2="538.67" y2="595.76" stroke="#7c2d12" stroke-width="1.5"/>
  <path d="M 538.67 595.76 A 19 19 0 0 1 557.67 576.76" fill="none" stroke="#7c2d12" stroke-width="1.1" opacity="0.8"/>
</g>
<g class="room-fitout" data-room="21" data-type="1" data-door="bottom">
  <rect x="531.07" y="654.56" width="38" height="13" rx="1.5" fill="#94a3b8" stroke="#475569" stroke-width="0.8"/>
  <circle cx="550.07" cy="672.56" r="3.2" fill="#cbd5e1" stroke="#64748b" stroke-width="0.6"/>
  <line x1="538.67" y1="713.56" x2="561.47" y2="713.56" stroke="#7c2d12" stroke-width="4.2" stroke-linecap="round"/>
  <line x1="538.67" y1="713.56" x2="538.67" y2="694.56" stroke="#7c2d12" stroke-width="1.5"/>
  <path d="M 538.67 694.56 A 19 19 0 0 0 557.67 713.56" fill="none" stroke="#7c2d12" stroke-width="1.1" opacity="0.8"/>
</g>
<g class="room-fitout" data-room="22" data-type="1" data-door="top">
  <rect x="606.69" y="622.76" width="38" height="13" rx="1.5" fill="#94a3b8" stroke="#475569" stroke-width="0.8"/>
  <circle cx="625.69" cy="617.76" r="3.2" fill="#cbd5e1" stroke="#64748b" stroke-width="0.6"/>
  <line x1="614.29" y1="576.76" x2="637.09" y2="576.76" stroke="#7c2d12" stroke-width="4.2" stroke-linecap="round"/>
  <line x1="614.29" y1="576.76" x2="614.29" y2="595.76" stroke="#7c2d12" stroke-width="1.5"/>
  <path d="M 614.29 595.76 A 19 19 0 0 1 633.29 576.76" fill="none" stroke="#7c2d12" stroke-width="1.1" opacity="0.8"/>
</g>
<g class="room-fitout" data-room="23" data-type="1" data-door="bottom">
  <rect x="606.69" y="654.56" width="38" height="13" rx="1.5" fill="#94a3b8" stroke="#475569" stroke-width="0.8"/>
  <circle cx="625.69" cy="672.56" r="3.2" fill="#cbd5e1" stroke="#64748b" stroke-width="0.6"/>
  <line x1="614.29" y1="713.56" x2="637.09" y2="713.56" stroke="#7c2d12" stroke-width="4.2" stroke-linecap="round"/>
  <line x1="614.29" y1="713.56" x2="614.29" y2="694.56" stroke="#7c2d12" stroke-width="1.5"/>
  <path d="M 614.29 694.56 A 19 19 0 0 0 633.29 713.56" fill="none" stroke="#7c2d12" stroke-width="1.1" opacity="0.8"/>
</g>
<g class="room-fitout" data-room="24" data-type="1" data-door="top">
  <rect x="682.31" y="622.76" width="38" height="13" rx="1.5" fill="#94a3b8" stroke="#475569" stroke-width="0.8"/>
  <circle cx="701.31" cy="617.76" r="3.2" fill="#cbd5e1" stroke="#64748b" stroke-width="0.6"/>
  <line x1="689.91" y1="576.76" x2="712.71" y2="576.76" stroke="#7c2d12" stroke-width="4.2" stroke-linecap="round"/>
  <line x1="689.91" y1="576.76" x2="689.91" y2="595.76" stroke="#7c2d12" stroke-width="1.5"/>
  <path d="M 689.91 595.76 A 19 19 0 0 1 708.91 576.76" fill="none" stroke="#7c2d12" stroke-width="1.1" opacity="0.8"/>
</g>
<g class="room-fitout" data-room="25" data-type="1" data-door="bottom">
  <rect x="682.31" y="654.56" width="38" height="13" rx="1.5" fill="#94a3b8" stroke="#475569" stroke-width="0.8"/>
  <circle cx="701.31" cy="672.56" r="3.2" fill="#cbd5e1" stroke="#64748b" stroke-width="0.6"/>
  <line x1="689.91" y1="713.56" x2="712.71" y2="713.56" stroke="#7c2d12" stroke-width="4.2" stroke-linecap="round"/>
  <line x1="689.91" y1="713.56" x2="689.91" y2="694.56" stroke="#7c2d12" stroke-width="1.5"/>
  <path d="M 689.91 694.56 A 19 19 0 0 0 708.91 713.56" fill="none" stroke="#7c2d12" stroke-width="1.1" opacity="0.8"/>
</g>
<g class="room-fitout" data-room="26" data-type="1" data-door="top">
  <rect x="757.93" y="622.76" width="38" height="13" rx="1.5" fill="#94a3b8" stroke="#475569" stroke-width="0.8"/>
  <circle cx="776.93" cy="617.76" r="3.2" fill="#cbd5e1" stroke="#64748b" stroke-width="0.6"/>
  <line x1="765.53" y1="576.76" x2="788.33" y2="576.76" stroke="#7c2d12" stroke-width="4.2" stroke-linecap="round"/>
  <line x1="765.53" y1="576.76" x2="765.53" y2="595.76" stroke="#7c2d12" stroke-width="1.5"/>
  <path d="M 765.53 595.76 A 19 19 0 0 1 784.53 576.76" fill="none" stroke="#7c2d12" stroke-width="1.1" opacity="0.8"/>
</g>
<g class="room-fitout" data-room="27" data-type="1" data-door="bottom">
  <rect x="757.93" y="654.56" width="38" height="13" rx="1.5" fill="#94a3b8" stroke="#475569" stroke-width="0.8"/>
  <circle cx="776.93" cy="672.56" r="3.2" fill="#cbd5e1" stroke="#64748b" stroke-width="0.6"/>
  <line x1="765.53" y1="713.56" x2="788.33" y2="713.56" stroke="#7c2d12" stroke-width="4.2" stroke-linecap="round"/>
  <line x1="765.53" y1="713.56" x2="765.53" y2="694.56" stroke="#7c2d12" stroke-width="1.5"/>
  <path d="M 765.53 694.56 A 19 19 0 0 0 784.53 713.56" fill="none" stroke="#7c2d12" stroke-width="1.1" opacity="0.8"/>
</g>
</g>
<defs><marker id="a" markerWidth="10" markerHeight="10" refX="5" refY="5" orient="auto"><path d="M2,2 L8,5 L2,8" fill="none" stroke="#b91c1c" stroke-width="1.3"/></marker></defs>
<line x1="160" y1="126" x2="882" y2="126" stroke="#b91c1c" stroke-width="1.2" marker-start="url(#a)" marker-end="url(#a)"/>
<text x="521" y="120" font-size="11" fill="#b91c1c" text-anchor="middle">19,000</text>
<line x1="110" y1="158" x2="110" y2="819.1999999999999" stroke="#b91c1c" stroke-width="1.2" marker-start="url(#a)" marker-end="url(#a)"/>
<text x="101" y="488.59999999999997" font-size="11" fill="#b91c1c" text-anchor="middle" transform="rotate(-90 101 488.59999999999997)">17,400</text>
<text x="160" y="80" font-size="12" font-weight="700" fill="#15803d">독립실 27호실 / 76석 — 4인 15실 · 2인 4실 · 1인 8실</text></svg>