<svg xmlns="http://www.w3.org/2000/svg" width="1140" height="920" font-family="Malgun Gothic,Pretendard,sans-serif">
<rect width="1140" height="920" fill="#fff"/>
<text x="160" y="40" font-size="22" font-weight="800" fill="#0f1e3d">분당 100평형 — 120·150평과 동일가(133/78/47만) · 판교와 동일 배치도</text>
<text x="160" y="60" font-size="11" fill="#64748b">줄1: 4인 3,670×2,400(풀폭·가로형) · 줄2~3: 4인 3,440×2,900 · 줄4: 2인 1,840×3,600(2.0평) · 1인 2,080×1,750(1.1평) · 복도1,200</text>
<rect x="160" y="158" width="722" height="661.1999999999999" fill="#3a4a63"/>
<rect x="161.9" y="159.9" width="718.1999999999999" height="657.3999999999999" fill="#f8fafc" stroke="#0f1e3d" stroke-width="3"/>
<rect x="832.6" y="257.56" width="45.6" height="559.74" fill="#e2e8f0"/>
<text x="857.3000000000001" y="519" font-size="8" fill="#475569" text-anchor="middle" transform="rotate(-90 857.3000000000001 519)">복도 1,200 (입구연결)</text>
<rect x="872" y="735.6" width="20" height="79.8" fill="#1d4ed8" stroke="#fff" stroke-width="2"/>
<polygon points="904,775.5 884,767.9 884,783.1" fill="#1d4ed8"/>
<rect x="906" y="761.5" width="46" height="28" rx="4" fill="#1d4ed8"/>
<text x="929" y="780.5" font-size="14" font-weight="900" fill="#fff" text-anchor="middle">입구</text>
<rect x="164.56" y="162.56" width="139.46" height="91.2" fill="#e8f0ff" stroke="#1e293b" stroke-width="1.3"/>
<text x="234.29000000000002" y="209.16" font-size="12" font-weight="700" fill="#0f1e3d" text-anchor="middle">4</text>
<text x="234.29000000000002" y="220.16" font-size="8.5" fill="#64748b" text-anchor="middle">3670×2400</text>
<line x1="220.99" y1="253.76" x2="247.59" y2="253.76" stroke="#fff" stroke-width="9"/>
<line x1="220.99" y1="253.76" x2="247.59" y2="253.76" stroke="#dc2626" stroke-width="6"/>
<rect x="307.82" y="162.56" width="139.46" height="91.2" fill="#e8f0ff" stroke="#1e293b" stroke-width="1.3"/>
<text x="377.54999999999995" y="209.16" font-size="12" font-weight="700" fill="#0f1e3d" text-anchor="middle">4</text>
<text x="377.54999999999995" y="220.16" font-size="8.5" fill="#64748b" text-anchor="middle">3670×2400</text>
<line x1="364.25" y1="253.76" x2="390.84999999999997" y2="253.76" stroke="#fff" stroke-width="9"/>
<line x1="364.25" y1="253.76" x2="390.84999999999997" y2="253.76" stroke="#dc2626" stroke-width="6"/>
<rect x="451.08" y="162.56" width="139.46" height="91.2" fill="#e8f0ff" stroke="#1e293b" stroke-width="1.3"/>
<text x="520.8100000000001" y="209.16" font-size="12" font-weight="700" fill="#0f1e3d" text-anchor="middle">4</text>
<text x="520.8100000000001" y="220.16" font-size="8.5" fill="#64748b" text-anchor="middle">3670×2400</text>
<line x1="507.51000000000005" y1="253.76" x2="534.11" y2="253.76" stroke="#fff" stroke-width="9"/>
<line x1="507.51000000000005" y1="253.76" x2="534.11" y2="253.76" stroke="#dc2626" stroke-width="6"/>
<rect x="594.3399999999999" y="162.56" width="139.46" height="91.2" fill="#e8f0ff" stroke="#1e293b" stroke-width="1.3"/>
<text x="664.07" y="209.16" font-size="12" font-weight="700" fill="#0f1e3d" text-anchor="middle">4</text>
<text x="664.07" y="220.16" font-size="8.5" fill="#64748b" text-anchor="middle">3670×2400</text>
<line x1="650.77" y1="253.76" x2="677.37" y2="253.76" stroke="#fff" stroke-width="9"/>
<line x1="650.77" y1="253.76" x2="677.37" y2="253.76" stroke="#dc2626" stroke-width="6"/>
<rect x="737.6" y="162.56" width="139.46" height="91.2" fill="#f1f1f1" stroke="#94a3b8" stroke-width="1.3" stroke-dasharray="6,4"/>
<text x="807.33" y="208.16" font-size="10" fill="#64748b" text-anchor="middle">비정형 손실 구간</text>
<text x="807.33" y="221.16" font-size="7.5" fill="#94a3b8" text-anchor="middle">(기둥·경사벽 반영, 1실 차감)</text>
<rect x="160" y="253.76" width="676.4" height="45.6" fill="#e2e8f0"/>
<text x="498.2" y="279.56" font-size="8" fill="#475569" text-anchor="middle">복도 1,200  (양면 — 줄1·줄2)</text>
<rect x="164.56" y="303.15999999999997" width="130.72" height="110.2" fill="#e8f0ff" stroke="#1e293b" stroke-width="1.3"/>
<text x="229.92" y="359.26" font-size="12" font-weight="700" fill="#0f1e3d" text-anchor="middle">4</text>
<text x="229.92" y="370.26" font-size="8.5" fill="#64748b" text-anchor="middle">3440×2900</text>
<line x1="216.62" y1="303.15999999999997" x2="243.22" y2="303.15999999999997" stroke="#fff" stroke-width="9"/>
<line x1="216.62" y1="303.15999999999997" x2="243.22" y2="303.15999999999997" stroke="#dc2626" stroke-width="6"/>
<rect x="299.08000000000004" y="303.15999999999997" width="130.72" height="110.2" fill="#e8f0ff" stroke="#1e293b" stroke-width="1.3"/>
<text x="364.44" y="359.26" font-size="12" font-weight="700" fill="#0f1e3d" text-anchor="middle">4</text>
<text x="364.44" y="370.26" font-size="8.5" fill="#64748b" text-anchor="middle">3440×2900</text>
<line x1="351.14" y1="303.15999999999997" x2="377.74" y2="303.15999999999997" stroke="#fff" stroke-width="9"/>
<line x1="351.14" y1="303.15999999999997" x2="377.74" y2="303.15999999999997" stroke="#dc2626" stroke-width="6"/>
<rect x="433.6" y="303.15999999999997" width="130.72" height="110.2" fill="#e8f0ff" stroke="#1e293b" stroke-width="1.3"/>
<text x="498.96" y="359.26" font-size="12" font-weight="700" fill="#0f1e3d" text-anchor="middle">4</text>
<text x="498.96" y="370.26" font-size="8.5" fill="#64748b" text-anchor="middle">3440×2900</text>
<line x1="485.66" y1="303.15999999999997" x2="512.26" y2="303.15999999999997" stroke="#fff" stroke-width="9"/>
<line x1="485.66" y1="303.15999999999997" x2="512.26" y2="303.15999999999997" stroke="#dc2626" stroke-width="6"/>
<rect x="568.12" y="303.15999999999997" width="130.72" height="110.2" fill="#e8f0ff" stroke="#1e293b" stroke-width="1.3"/>
<text x="633.48" y="359.26" font-size="12" font-weight="700" fill="#0f1e3d" text-anchor="middle">4</text>
<text x="633.48" y="370.26" font-size="8.5" fill="#64748b" text-anchor="middle">3440×2900</text>
<line x1="620.1800000000001" y1="303.15999999999997" x2="646.78" y2="303.15999999999997" stroke="#fff" stroke-width="9"/>
<line x1="620.1800000000001" y1="303.15999999999997" x2="646.78" y2="303.15999999999997" stroke="#dc2626" stroke-width="6"/>
<rect x="702.6400000000001" y="303.15999999999997" width="130.72" height="110.2" fill="#e8f0ff" stroke="#1e293b" stroke-width="1.3"/>
<text x="768" y="359.26" font-size="12" font-weight="700" fill="#0f1e3d" text-anchor="middle">4</text>
<text x="768" y="370.26" font-size="8.5" fill="#64748b" text-anchor="middle">3440×2900</text>
<line x1="754.7" y1="303.15999999999997" x2="781.3000000000001" y2="303.15999999999997" stroke="#fff" stroke-width="9"/>
<line x1="754.7" y1="303.15999999999997" x2="781.3000000000001" y2="303.15999999999997" stroke="#dc2626" stroke-width="6"/>
<rect x="164.56" y="417.16" width="130.72" height="110.2" fill="#e8f0ff" stroke="#1e293b" stroke-width="1.3"/>
<text x="229.92" y="473.26" font-size="12" font-weight="700" fill="#0f1e3d" text-anchor="middle">4</text>
<text x="229.92" y="484.26" font-size="8.5" fill="#64748b" text-anchor="middle">3440×2900</text>
<line x1="216.62" y1="527.36" x2="243.22" y2="527.36" stroke="#fff" stroke-width="9"/>
<line x1="216.62" y1="527.36" x2="243.22" y2="527.36" stroke="#dc2626" stroke-width="6"/>
<rect x="299.08000000000004" y="417.16" width="130.72" height="110.2" fill="#e8f0ff" stroke="#1e293b" stroke-width="1.3"/>
<text x="364.44" y="473.26" font-size="12" font-weight="700" fill="#0f1e3d" text-anchor="middle">4</text>
<text x="364.44" y="484.26" font-size="8.5" fill="#64748b" text-anchor="middle">3440×2900</text>
<line x1="351.14" y1="527.36" x2="377.74" y2="527.36" stroke="#fff" stroke-width="9"/>
<line x1="351.14" y1="527.36" x2="377.74" y2="527.36" stroke="#dc2626" stroke-width="6"/>
<rect x="433.6" y="417.16" width="130.72" height="110.2" fill="#e8f0ff" stroke="#1e293b" stroke-width="1.3"/>
<text x="498.96" y="473.26" font-size="12" font-weight="700" fill="#0f1e3d" text-anchor="middle">4</text>
<text x="498.96" y="484.26" font-size="8.5" fill="#64748b" text-anchor="middle">3440×2900</text>
<line x1="485.66" y1="527.36" x2="512.26" y2="527.36" stroke="#fff" stroke-width="9"/>
<line x1="485.66" y1="527.36" x2="512.26" y2="527.36" stroke="#dc2626" stroke-width="6"/>
<rect x="568.12" y="417.16" width="130.72" height="110.2" fill="#e8f0ff" stroke="#1e293b" stroke-width="1.3"/>
<text x="633.48" y="473.26" font-size="12" font-weight="700" fill="#0f1e3d" text-anchor="middle">4</text>
<text x="633.48" y="484.26" font-size="8.5" fill="#64748b" text-anchor="middle">3440×2900</text>
<line x1="620.1800000000001" y1="527.36" x2="646.78" y2="527.36" stroke="#fff" stroke-width="9"/>
<line x1="620.1800000000001" y1="527.36" x2="646.78" y2="527.36" stroke="#dc2626" stroke-width="6"/>
<rect x="702.6400000000001" y="417.16" width="130.72" height="110.2" fill="#e8f0ff" stroke="#1e293b" stroke-width="1.3"/>
<text x="768" y="473.26" font-size="12" font-weight="700" fill="#0f1e3d" text-anchor="middle">4</text>
<text x="768" y="484.26" font-size="8.5" fill="#64748b" text-anchor="middle">3440×2900</text>
<line x1="754.7" y1="527.36" x2="781.3000000000001" y2="527.36" stroke="#fff" stroke-width="9"/>
<line x1="754.7" y1="527.36" x2="781.3000000000001" y2="527.36" stroke="#dc2626" stroke-width="6"/>
<rect x="160" y="527.36" width="676.4" height="45.6" fill="#e2e8f0"/>
<text x="498.2" y="553.1600000000001" font-size="8" fill="#475569" text-anchor="middle">복도 1,200  (양면 — 줄3·줄4)</text>
<rect x="164.56" y="576.76" width="69.92" height="136.8" fill="#dce8ff" stroke="#1e293b" stroke-width="1.3"/>
<text x="199.52" y="646.1600000000001" font-size="12" font-weight="700" fill="#0f1e3d" text-anchor="middle">2</text>
<text x="199.52" y="657.1600000000001" font-size="8.5" fill="#64748b" text-anchor="middle">1840×3600</text>
<line x1="186.22" y1="576.76" x2="212.82" y2="576.76" stroke="#fff" stroke-width="9"/>
<line x1="186.22" y1="576.76" x2="212.82" y2="576.76" stroke="#dc2626" stroke-width="6"/>
<rect x="241.32" y="576.76" width="69.92" height="136.8" fill="#dce8ff" stroke="#1e293b" stroke-width="1.3"/>
<text x="276.28" y="646.1600000000001" font-size="12" font-weight="700" fill="#0f1e3d" text-anchor="middle">2</text>
<text x="276.28" y="657.1600000000001" font-size="8.5" fill="#64748b" text-anchor="middle">1840×3600</text>
<line x1="262.98" y1="576.76" x2="289.58000000000004" y2="576.76" stroke="#fff" stroke-width="9"/>
<line x1="262.98" y1="576.76" x2="289.58000000000004" y2="576.76" stroke="#dc2626" stroke-width="6"/>
<rect x="318.08000000000004" y="576.76" width="69.92" height="136.8" fill="#dce8ff" stroke="#1e293b" stroke-width="1.3"/>
<text x="353.03999999999996" y="646.1600000000001" font-size="12" font-weight="700" fill="#0f1e3d" text-anchor="middle">2</text>
<text x="353.03999999999996" y="657.1600000000001" font-size="8.5" fill="#64748b" text-anchor="middle">1840×3600</text>
<line x1="339.74" y1="576.76" x2="366.34" y2="576.76" stroke="#fff" stroke-width="9"/>
<line x1="339.74" y1="576.76" x2="366.34" y2="576.76" stroke="#dc2626" stroke-width="6"/>
<rect x="394.84" y="576.76" width="69.92" height="136.8" fill="#dce8ff" stroke="#1e293b" stroke-width="1.3"/>
<text x="429.8" y="646.1600000000001" font-size="12" font-weight="700" fill="#0f1e3d" text-anchor="middle">2</text>
<text x="429.8" y="657.1600000000001" font-size="8.5" fill="#64748b" text-anchor="middle">1840×3600</text>
<line x1="416.5" y1="576.76" x2="443.09999999999997" y2="576.76" stroke="#fff" stroke-width="9"/>
<line x1="416.5" y1="576.76" x2="443.09999999999997" y2="576.76" stroke="#dc2626" stroke-width="6"/>
<rect x="471.59999999999997" y="576.76" width="79.04" height="66.5" fill="#ede8ff" stroke="#1e293b" stroke-width="1.3"/>
<text x="511.11999999999995" y="611.01" font-size="12" font-weight="700" fill="#0f1e3d" text-anchor="middle">1</text>
<text x="511.11999999999995" y="622.01" font-size="8.5" fill="#64748b" text-anchor="middle">2080×1750</text>
<line x1="497.81999999999994" y1="576.76" x2="524.4199999999998" y2="576.76" stroke="#fff" stroke-width="9"/>
<line x1="497.81999999999994" y1="576.76" x2="524.4199999999998" y2="576.76" stroke="#dc2626" stroke-width="6"/>
<rect x="471.59999999999997" y="647.06" width="79.04" height="66.5" fill="#ede8ff" stroke="#1e293b" stroke-width="1.3"/>
<text x="511.11999999999995" y="681.31" font-size="12" font-weight="700" fill="#0f1e3d" text-anchor="middle">1</text>
<text x="511.11999999999995" y="692.31" font-size="8.5" fill="#64748b" text-anchor="middle">2080×1750</text>
<line x1="497.81999999999994" y1="713.56" x2="524.4199999999998" y2="713.56" stroke="#fff" stroke-width="9"/>
<line x1="497.81999999999994" y1="713.56" x2="524.4199999999998" y2="713.56" stroke="#dc2626" stroke-width="6"/>
<rect x="557.8599999999999" y="576.76" width="79.04" height="66.5" fill="#ede8ff" stroke="#1e293b" stroke-width="1.3"/>
<text x="597.3799999999999" y="611.01" font-size="12" font-weight="700" fill="#0f1e3d" text-anchor="middle">1</text>
<text x="597.3799999999999" y="622.01" font-size="8.5" fill="#64748b" text-anchor="middle">2080×1750</text>
<line x1="584.0799999999999" y1="576.76" x2="610.6799999999998" y2="576.76" stroke="#fff" stroke-width="9"/>
<line x1="584.0799999999999" y1="576.76" x2="610.6799999999998" y2="576.76" stroke="#dc2626" stroke-width="6"/>
<rect x="557.8599999999999" y="647.06" width="79.04" height="66.5" fill="#ede8ff" stroke="#1e293b" stroke-width="1.3"/>
<text x="597.3799999999999" y="681.31" font-size="12" font-weight="700" fill="#0f1e3d" text-anchor="middle">1</text>
<text x="597.3799999999999" y="692.31" font-size="8.5" fill="#64748b" text-anchor="middle">2080×1750</text>
<line x1="584.0799999999999" y1="713.56" x2="610.6799999999998" y2="713.56" stroke="#fff" stroke-width="9"/>
<line x1="584.0799999999999" y1="713.56" x2="610.6799999999998" y2="713.56" stroke="#dc2626" stroke-width="6"/>
<rect x="644.1199999999999" y="576.76" width="79.04" height="66.5" fill="#ede8ff" stroke="#1e293b" stroke-width="1.3"/>
<text x="683.6399999999999" y="611.01" font-size="12" font-weight="700" fill="#0f1e3d" text-anchor="middle">1</text>
<text x="683.6399999999999" y="622.01" font-size="8.5" fill="#64748b" text-anchor="middle">2080×1750</text>
<line x1="670.3399999999999" y1="576.76" x2="696.9399999999999" y2="576.76" stroke="#fff" stroke-width="9"/>
<line x1="670.3399999999999" y1="576.76" x2="696.9399999999999" y2="576.76" stroke="#dc2626" stroke-width="6"/>
<rect x="644.1199999999999" y="647.06" width="79.04" height="66.5" fill="#ede8ff" stroke="#1e293b" stroke-width="1.3"/>
<text x="683.6399999999999" y="681.31" font-size="12" font-weight="700" fill="#0f1e3d" text-anchor="middle">1</text>
<text x="683.6399999999999" y="692.31" font-size="8.5" fill="#64748b" text-anchor="middle">2080×1750</text>
<line x1="670.3399999999999" y1="713.56" x2="696.9399999999999" y2="713.56" stroke="#fff" stroke-width="9"/>
<line x1="670.3399999999999" y1="713.56" x2="696.9399999999999" y2="713.56" stroke="#dc2626" stroke-width="6"/>
<rect x="730.3799999999999" y="576.76" width="79.04" height="66.5" fill="#ede8ff" stroke="#1e293b" stroke-width="1.3"/>
<text x="769.8999999999999" y="611.01" font-size="12" font-weight="700" fill="#0f1e3d" text-anchor="middle">1</text>
<text x="769.8999999999999" y="622.01" font-size="8.5" fill="#64748b" text-anchor="middle">2080×1750</text>
<line x1="756.5999999999999" y1="576.76" x2="783.1999999999999" y2="576.76" stroke="#fff" stroke-width="9"/>
<line x1="756.5999999999999" y1="576.76" x2="783.1999999999999" y2="576.76" stroke="#dc2626" stroke-width="6"/>
<rect x="730.3799999999999" y="647.06" width="79.04" height="66.5" fill="#ede8ff" stroke="#1e293b" stroke-width="1.3"/>
<text x="769.8999999999999" y="681.31" font-size="12" font-weight="700" fill="#0f1e3d" text-anchor="middle">1</text>
<text x="769.8999999999999" y="692.31" font-size="8.5" fill="#64748b" text-anchor="middle">2080×1750</text>
<line x1="756.5999999999999" y1="713.56" x2="783.1999999999999" y2="713.56" stroke="#fff" stroke-width="9"/>
<line x1="756.5999999999999" y1="713.56" x2="783.1999999999999" y2="713.56" stroke="#dc2626" stroke-width="6"/>
<rect x="160" y="713.56" width="676.4" height="36.1" fill="#e2e8f0"/>
<text x="498.2" y="734.6099999999999" font-size="8" fill="#475569" text-anchor="middle">복도 1,200 (공용 진입)</text>
<rect x="161.9" y="749.66" width="129.2" height="67.64" fill="#eef3fb" stroke="#1e293b" stroke-width="1.3"/>
<text x="226.5" y="783.48" font-size="12" font-weight="700" fill="#0f1e3d" text-anchor="middle">회의실 6인</text>
<text x="226.5" y="795.48" font-size="8.5" fill="#64748b" text-anchor="middle">3400×1780</text>
<rect x="294.9" y="749.66" width="110.2" height="67.64" fill="#eef3fb" stroke="#1e293b" stroke-width="1.3"/>
<text x="350" y="783.48" font-size="12" font-weight="700" fill="#0f1e3d" text-anchor="middle">회의실 4인</text>
<text x="350" y="795.48" font-size="8.5" fill="#64748b" text-anchor="middle">2900×1780</text>
<rect x="408.9" y="749.66" width="68.4" height="67.64" fill="#f1f5f9" stroke="#1e293b" stroke-width="1.3"/>
<text x="443.1" y="783.48" font-size="12" font-weight="700" fill="#0f1e3d" text-anchor="middle">OA</text>
<text x="443.1" y="795.48" font-size="8.5" fill="#64748b" text-anchor="middle">1800×1780</text>
<rect x="481.09999999999997" y="749.66" width="57" height="67.64" fill="#fff7ed" stroke="#1e293b" stroke-width="1.3"/>
<text x="509.59999999999997" y="783.48" font-size="12" font-weight="700" fill="#0f1e3d" text-anchor="middle">우편·소포</text>
<text x="509.59999999999997" y="795.48" font-size="8.5" fill="#64748b" text-anchor="middle">1500×1780</text>
<rect x="541.9000000000001" y="749.66" width="57" height="67.64" fill="#f1f5f4" stroke="#1e293b" stroke-width="1.3"/>
<text x="570.4000000000001" y="783.48" font-size="12" font-weight="700" fill="#0f1e3d" text-anchor="middle">창고</text>
<text x="570.4000000000001" y="795.48" font-size="8.5" fill="#64748b" text-anchor="middle">1500×1780</text>
<rect x="602.7" y="749.66" width="233.70000000000002" height="67.64" fill="#f0fdf4" stroke="#1e293b" stroke-width="1.3"/>
<text x="719.5500000000001" y="783.48" font-size="12" font-weight="700" fill="#0f1e3d" text-anchor="middle">라운지 + 탕비 + 리셉션 (입구 동선)</text>
<text x="719.5500000000001" y="795.48" font-size="8.5" fill="#64748b" text-anchor="middle">6150×1780</text>
<text x="513.4000000000001" y="859.1999999999999" font-size="13" font-weight="800" fill="#15803d" text-anchor="middle">독립실 26호실 / 72석 (4인 14·2인 4·1인 8) + 회의실 6/4인 + OA + 우편·소포 + 창고 + 라운지·탕비·리셉션</text>
<defs><marker id="a" markerWidth="10" markerHeight="10" refX="5" refY="5" orient="auto"><path d="M2,2 L8,5 L2,8" fill="none" stroke="#b91c1c" stroke-width="1.3"/></marker></defs>
<line x1="160" y1="126" x2="882" y2="126" stroke="#b91c1c" stroke-width="1.2" marker-start="url(#a)" marker-end="url(#a)"/>
<text x="521" y="120" font-size="11" fill="#b91c1c" text-anchor="middle">19,000</text>
<line x1="110" y1="158" x2="110" y2="819.1999999999999" stroke="#b91c1c" stroke-width="1.2" marker-start="url(#a)" marker-end="url(#a)"/>
<text x="101" y="488.59999999999997" font-size="11" fill="#b91c1c" text-anchor="middle" transform="rotate(-90 101 488.59999999999997)">17,400</text>
<text x="160" y="80" font-size="12" font-weight="700" fill="#15803d">독립실 26호실 / 72석 — 4인 14실 · 2인 4실 · 1인 8실</text></svg>